# MagicaVoxel @ Ephtracy

# group
o 

# material
mtllib player_character_blue.mtl
usemtl palette

# normals
vn -1 0 0
vn 1 0 0
vn 0 0 1
vn 0 0 -1
vn 0 -1 0
vn 0 1 0

# texcoords
vt 0.943359 0.5
vt 0.970703 0.5
vt 0.974609 0.5
vt 0.978516 0.5
vt 0.982422 0.5
vt 0.990234 0.5

# verts
v -1 1.1 0.2
v -1 1.1 -0.2
v -1 1.4 0.2
v -1 1.4 -0.2
v -0.6 0 0.3
v -0.6 0 -0.3
v -0.6 0.4 0.3
v -0.6 0.4 -0.3
v -0.5 1.1 0.4
v -0.5 1.1 -0.3
v -0.5 2 0.4
v -0.5 2 0.3
v -0.5 2.1 0.3
v -0.5 2.1 -0.3
v -0.4 1 0.4
v -0.4 1 -0.3
v -0.4 1.1 0.5
v -0.4 1.1 0.4
v -0.4 1.1 -0.3
v -0.4 1.1 -0.4
v -0.4 2 0.4
v -0.4 2 0.3
v -0.4 2.1 0.5
v -0.4 2.1 0.4
v -0.4 2.1 0.3
v -0.4 2.1 -0.3
v -0.4 2.2 -0.3
v -0.4 2.2 -0.4
v -0.4 2.3 0.4
v -0.4 2.3 -0.3
v -0.4 3.2 0.6
v -0.4 3.2 -0.3
v -0.4 3.4 0.6
v -0.4 3.4 0.3
v -0.4 3.5 0.3
v -0.4 3.5 -0.3
v -0.3 2.1 0.5
v -0.3 2.1 0.4
v -0.3 2.2 0.5
v -0.3 2.2 0.4
v -0.3 2.2 -0.3
v -0.3 2.2 -0.4
v -0.3 2.3 0.4
v -0.3 2.3 -0.3
v -0.3 2.3 -0.4
v -0.3 2.4 0.4
v -0.3 2.4 0.2
v -0.3 2.4 -0.2
v -0.3 2.4 -0.3
v -0.3 2.5 0.2
v -0.3 2.5 -0.2
v -0.3 2.7 0.3
v -0.3 2.7 -0.3
v -0.3 3.2 0.3
v -0.3 3.2 -0.3
v -0.3 3.2 -0.4
v -0.3 3.3 0.7
v -0.3 3.3 0.6
v -0.3 3.4 0.7
v -0.3 3.4 0.6
v -0.3 3.5 0.3
v -0.3 3.5 -0.3
v -0.3 3.5 -0.4
v -0.3 3.6 0.3
v -0.3 3.6 -0.3
v -0.2 2.3 -0.3
v -0.2 2.3 -0.4
v -0.2 2.4 0.3
v -0.2 2.4 0.2
v -0.2 2.4 -0.2
v -0.2 2.4 -0.3
v -0.2 2.4 -0.4
v -0.2 2.5 0.3
v -0.2 2.5 0.2
v -0.2 2.5 -0.2
v -0.2 2.5 -0.3
v -0.2 3.3 0.8
v -0.2 3.3 0.7
v -0.2 3.4 0.8
v -0.2 3.4 0.7
v 0.2 0 0.3
v 0.2 0 -0.3
v 0.2 0.4 0.3
v 0.2 0.4 -0.3
v 0.7 1.1 0.2
v 0.7 1.1 -0.2
v 0.7 1.4 0.2
v 0.7 1.4 -0.2
v -0.7 1.1 0.2
v -0.7 1.1 -0.2
v -0.7 1.4 0.2
v -0.7 1.4 -0.2
v -0.2 0 0.3
v -0.2 0 -0.3
v -0.2 0.4 0.3
v -0.2 0.4 -0.3
v 0.2 2.3 -0.3
v 0.2 2.3 -0.4
v 0.2 2.4 0.3
v 0.2 2.4 0.2
v 0.2 2.4 -0.2
v 0.2 2.4 -0.3
v 0.2 2.4 -0.4
v 0.2 2.5 0.3
v 0.2 2.5 0.2
v 0.2 2.5 -0.2
v 0.2 2.5 -0.3
v 0.2 3.3 0.8
v 0.2 3.3 0.7
v 0.2 3.4 0.8
v 0.2 3.4 0.7
v 0.3 2.1 0.5
v 0.3 2.1 0.4
v 0.3 2.2 0.5
v 0.3 2.2 0.4
v 0.3 2.2 -0.3
v 0.3 2.2 -0.4
v 0.3 2.3 0.4
v 0.3 2.3 -0.3
v 0.3 2.3 -0.4
v 0.3 2.4 0.4
v 0.3 2.4 0.2
v 0.3 2.4 -0.2
v 0.3 2.4 -0.3
v 0.3 2.5 0.2
v 0.3 2.5 -0.2
v 0.3 2.7 0.3
v 0.3 2.7 -0.3
v 0.3 3.2 0.3
v 0.3 3.2 -0.3
v 0.3 3.2 -0.4
v 0.3 3.3 0.7
v 0.3 3.3 0.6
v 0.3 3.4 0.7
v 0.3 3.4 0.6
v 0.3 3.5 0.3
v 0.3 3.5 -0.3
v 0.3 3.5 -0.4
v 0.3 3.6 0.3
v 0.3 3.6 -0.3
v 0.4 1 0.4
v 0.4 1 -0.3
v 0.4 1.1 0.5
v 0.4 1.1 0.4
v 0.4 1.1 -0.3
v 0.4 1.1 -0.4
v 0.4 1.7 0.5
v 0.4 1.7 0.4
v 0.4 1.9 0.5
v 0.4 1.9 0.4
v 0.4 2 0.4
v 0.4 2 0.3
v 0.4 2.1 0.5
v 0.4 2.1 0.4
v 0.4 2.1 0.3
v 0.4 2.1 -0.3
v 0.4 2.2 -0.3
v 0.4 2.2 -0.4
v 0.4 2.3 0.4
v 0.4 2.3 -0.3
v 0.4 3.2 0.6
v 0.4 3.2 -0.3
v 0.4 3.4 0.6
v 0.4 3.4 0.3
v 0.4 3.5 0.3
v 0.4 3.5 -0.3
v 0.5 1.1 0.4
v 0.5 1.1 -0.3
v 0.5 2 0.4
v 0.5 2 0.3
v 0.5 2.1 0.3
v 0.5 2.1 -0.3
v 0.6 0 0.3
v 0.6 0 -0.3
v 0.6 0.4 0.3
v 0.6 0.4 -0.3
v 1 1.1 0.2
v 1 1.1 -0.2
v 1 1.4 0.2
v 1 1.4 -0.2
v -0.2 3.3 0.8
v -0.2 3.4 0.8
v 0.2 3.3 0.8
v 0.2 3.4 0.8
v -0.3 3.3 0.7
v -0.3 3.4 0.7
v -0.2 3.3 0.7
v -0.2 3.4 0.7
v 0.2 3.3 0.7
v 0.2 3.4 0.7
v 0.3 3.3 0.7
v 0.3 3.4 0.7
v -0.4 3.2 0.6
v -0.4 3.4 0.6
v -0.3 3.3 0.6
v -0.3 3.4 0.6
v 0.3 3.3 0.6
v 0.3 3.4 0.6
v 0.4 3.2 0.6
v 0.4 3.4 0.6
v -0.4 1.1 0.5
v -0.4 2.1 0.5
v -0.3 2.1 0.5
v -0.3 2.2 0.5
v 1.19209e-07 1.7 0.5
v 1.19209e-07 1.9 0.5
v 0.3 2.1 0.5
v 0.3 2.2 0.5
v 0.4 1.1 0.5
v 0.4 1.7 0.5
v 0.4 1.9 0.5
v 0.4 2.1 0.5
v -0.5 1.1 0.4
v -0.5 2 0.4
v -0.4 1 0.4
v -0.4 1.1 0.4
v -0.4 2 0.4
v -0.4 2.1 0.4
v -0.4 2.3 0.4
v -0.3 2.1 0.4
v -0.3 2.2 0.4
v -0.3 2.3 0.4
v -0.3 2.4 0.4
v 0.3 2.1 0.4
v 0.3 2.2 0.4
v 0.3 2.3 0.4
v 0.3 2.4 0.4
v 0.4 1 0.4
v 0.4 1.1 0.4
v 0.4 1.7 0.4
v 0.4 1.9 0.4
v 0.4 2 0.4
v 0.4 2.1 0.4
v 0.4 2.3 0.4
v 0.5 1.1 0.4
v 0.5 2 0.4
v -0.6 0 0.3
v -0.6 0.4 0.3
v -0.5 2 0.3
v -0.5 2.1 0.3
v -0.4 2 0.3
v -0.4 2.1 0.3
v -0.4 3.4 0.3
v -0.4 3.5 0.3
v -0.3 2.7 0.3
v -0.3 3.2 0.3
v -0.3 3.5 0.3
v -0.3 3.6 0.3
v -0.2 0 0.3
v -0.2 0.4 0.3
v -0.2 2.4 0.3
v -0.2 2.5 0.3
v -0.2 3 0.3
v -0.2 3.1 0.3
v -0.0999999 3 0.3
v -0.0999999 3.1 0.3
v 0.1 3 0.3
v 0.1 3.1 0.3
v 0.2 0 0.3
v 0.2 0.4 0.3
v 0.2 2.4 0.3
v 0.2 2.5 0.3
v 0.2 3 0.3
v 0.2 3.1 0.3
v 0.3 2.7 0.3
v 0.3 3.2 0.3
v 0.3 3.5 0.3
v 0.3 3.6 0.3
v 0.4 2 0.3
v 0.4 2.1 0.3
v 0.4 3.4 0.3
v 0.4 3.5 0.3
v 0.5 2 0.3
v 0.5 2.1 0.3
v 0.6 0 0.3
v 0.6 0.4 0.3
v -1 1.1 0.2
v -1 1.4 0.2
v -0.7 1.1 0.2
v -0.7 1.4 0.2
v -0.3 2.4 0.2
v -0.3 2.5 0.2
v -0.2 2.4 0.2
v -0.2 2.5 0.2
v 0.2 2.4 0.2
v 0.2 2.5 0.2
v 0.3 2.4 0.2
v 0.3 2.5 0.2
v 0.7 1.1 0.2
v 0.7 1.4 0.2
v 1 1.1 0.2
v 1 1.4 0.2
v -1 1.1 -0.2
v -1 1.4 -0.2
v -0.7 1.1 -0.2
v -0.7 1.4 -0.2
v -0.3 2.4 -0.2
v -0.3 2.5 -0.2
v -0.2 2.4 -0.2
v -0.2 2.5 -0.2
v 0.2 2.4 -0.2
v 0.2 2.5 -0.2
v 0.3 2.4 -0.2
v 0.3 2.5 -0.2
v 0.7 1.1 -0.2
v 0.7 1.4 -0.2
v 1 1.1 -0.2
v 1 1.4 -0.2
v -0.6 0 -0.3
v -0.6 0.4 -0.3
v -0.5 1.1 -0.3
v -0.5 2.1 -0.3
v -0.4 1 -0.3
v -0.4 1.1 -0.3
v -0.4 2.1 -0.3
v -0.4 2.2 -0.3
v -0.4 2.3 -0.3
v -0.4 3.2 -0.3
v -0.4 3.5 -0.3
v -0.3 2.2 -0.3
v -0.3 2.3 -0.3
v -0.3 2.4 -0.3
v -0.3 2.7 -0.3
v -0.3 3.2 -0.3
v -0.3 3.5 -0.3
v -0.3 3.6 -0.3
v -0.2 0 -0.3
v -0.2 0.4 -0.3
v -0.2 2.3 -0.3
v -0.2 2.4 -0.3
v -0.2 2.5 -0.3
v 0.2 0 -0.3
v 0.2 0.4 -0.3
v 0.2 2.3 -0.3
v 0.2 2.4 -0.3
v 0.2 2.5 -0.3
v 0.3 2.2 -0.3
v 0.3 2.3 -0.3
v 0.3 2.4 -0.3
v 0.3 2.7 -0.3
v 0.3 3.2 -0.3
v 0.3 3.5 -0.3
v 0.3 3.6 -0.3
v 0.4 1 -0.3
v 0.4 1.1 -0.3
v 0.4 2.1 -0.3
v 0.4 2.2 -0.3
v 0.4 2.3 -0.3
v 0.4 3.2 -0.3
v 0.4 3.5 -0.3
v 0.5 1.1 -0.3
v 0.5 2.1 -0.3
v 0.6 0 -0.3
v 0.6 0.4 -0.3
v -0.4 1.1 -0.4
v -0.4 2.2 -0.4
v -0.3 2.2 -0.4
v -0.3 2.3 -0.4
v -0.3 3.2 -0.4
v -0.3 3.5 -0.4
v -0.2 2.3 -0.4
v -0.2 2.4 -0.4
v 0.2 2.3 -0.4
v 0.2 2.4 -0.4
v 0.3 2.2 -0.4
v 0.3 2.3 -0.4
v 0.3 3.2 -0.4
v 0.3 3.5 -0.4
v 0.4 1.1 -0.4
v 0.4 2.2 -0.4
v -0.6 0 0.3
v -0.2 0 0.3
v 0.2 0 0.3
v 0.6 0 0.3
v -0.6 0 -0.3
v -0.2 0 -0.3
v 0.2 0 -0.3
v 0.6 0 -0.3
v -0.4 1 0.4
v 0.4 1 0.4
v -0.4 1 -0.3
v 0.4 1 -0.3
v -0.4 1.1 0.5
v 0.4 1.1 0.5
v -0.5 1.1 0.4
v -0.4 1.1 0.4
v 0.4 1.1 0.4
v 0.5 1.1 0.4
v -1 1.1 0.2
v -0.7 1.1 0.2
v 0.7 1.1 0.2
v 1 1.1 0.2
v -1 1.1 -0.2
v -0.7 1.1 -0.2
v 0.7 1.1 -0.2
v 1 1.1 -0.2
v -0.5 1.1 -0.3
v -0.4 1.1 -0.3
v 0.4 1.1 -0.3
v 0.5 1.1 -0.3
v -0.4 1.1 -0.4
v 0.4 1.1 -0.4
v -0.3 2.7 0.3
v 0.3 2.7 0.3
v -0.3 2.7 -0.3
v 0.3 2.7 -0.3
v -0.4 3.2 0.6
v 0.4 3.2 0.6
v -0.3 3.2 0.3
v 0.3 3.2 0.3
v -0.4 3.2 -0.3
v -0.3 3.2 -0.3
v 0.3 3.2 -0.3
v 0.4 3.2 -0.3
v -0.3 3.2 -0.4
v 0.3 3.2 -0.4
v -0.2 3.3 0.8
v 0.2 3.3 0.8
v -0.3 3.3 0.7
v -0.2 3.3 0.7
v 0.2 3.3 0.7
v 0.3 3.3 0.7
v -0.3 3.3 0.6
v 0.3 3.3 0.6
v -0.6 0.4 0.3
v -0.2 0.4 0.3
v 0.2 0.4 0.3
v 0.6 0.4 0.3
v -0.6 0.4 -0.3
v -0.2 0.4 -0.3
v 0.2 0.4 -0.3
v 0.6 0.4 -0.3
v -1 1.4 0.2
v -0.7 1.4 0.2
v 0.7 1.4 0.2
v 1 1.4 0.2
v -1 1.4 -0.2
v -0.7 1.4 -0.2
v 0.7 1.4 -0.2
v 1 1.4 -0.2
v -0.5 2 0.4
v -0.4 2 0.4
v 0.4 2 0.4
v 0.5 2 0.4
v -0.5 2 0.3
v -0.4 2 0.3
v 0.4 2 0.3
v 0.5 2 0.3
v -0.4 2.1 0.5
v -0.3 2.1 0.5
v 0.3 2.1 0.5
v 0.4 2.1 0.5
v -0.4 2.1 0.4
v -0.3 2.1 0.4
v 0.3 2.1 0.4
v 0.4 2.1 0.4
v -0.5 2.1 0.3
v -0.4 2.1 0.3
v 0.4 2.1 0.3
v 0.5 2.1 0.3
v -0.5 2.1 -0.3
v -0.4 2.1 -0.3
v 0.4 2.1 -0.3
v 0.5 2.1 -0.3
v -0.3 2.2 0.5
v 0.3 2.2 0.5
v -0.3 2.2 0.4
v 0.3 2.2 0.4
v -0.4 2.2 -0.3
v -0.3 2.2 -0.3
v 0.3 2.2 -0.3
v 0.4 2.2 -0.3
v -0.4 2.2 -0.4
v -0.3 2.2 -0.4
v 0.3 2.2 -0.4
v 0.4 2.2 -0.4
v -0.4 2.3 0.4
v -0.3 2.3 0.4
v 0.3 2.3 0.4
v 0.4 2.3 0.4
v -0.4 2.3 -0.3
v -0.3 2.3 -0.3
v -0.2 2.3 -0.3
v 0.2 2.3 -0.3
v 0.3 2.3 -0.3
v 0.4 2.3 -0.3
v -0.3 2.3 -0.4
v -0.2 2.3 -0.4
v 0.2 2.3 -0.4
v 0.3 2.3 -0.4
v -0.3 2.4 0.4
v 0.3 2.4 0.4
v -0.2 2.4 0.3
v 0.2 2.4 0.3
v -0.3 2.4 0.2
v -0.2 2.4 0.2
v 0.2 2.4 0.2
v 0.3 2.4 0.2
v -0.3 2.4 -0.2
v -0.2 2.4 -0.2
v 0.2 2.4 -0.2
v 0.3 2.4 -0.2
v -0.3 2.4 -0.3
v -0.2 2.4 -0.3
v 0.2 2.4 -0.3
v 0.3 2.4 -0.3
v -0.2 2.4 -0.4
v 0.2 2.4 -0.4
v -0.2 2.5 0.3
v 0.2 2.5 0.3
v -0.3 2.5 0.2
v -0.2 2.5 0.2
v 0.2 2.5 0.2
v 0.3 2.5 0.2
v -0.3 2.5 -0.2
v -0.2 2.5 -0.2
v 0.2 2.5 -0.2
v 0.3 2.5 -0.2
v -0.2 2.5 -0.3
v 0.2 2.5 -0.3
v -0.2 3.4 0.8
v 0.2 3.4 0.8
v -0.3 3.4 0.7
v -0.2 3.4 0.7
v 0.2 3.4 0.7
v 0.3 3.4 0.7
v -0.4 3.4 0.6
v -0.3 3.4 0.6
v 0.3 3.4 0.6
v 0.4 3.4 0.6
v -0.4 3.4 0.3
v 0.4 3.4 0.3
v -0.4 3.5 0.3
v -0.3 3.5 0.3
v 0.3 3.5 0.3
v 0.4 3.5 0.3
v -0.4 3.5 -0.3
v -0.3 3.5 -0.3
v 0.3 3.5 -0.3
v 0.4 3.5 -0.3
v -0.3 3.5 -0.4
v 0.3 3.5 -0.4
v -0.3 3.6 0.3
v 0.3 3.6 0.3
v -0.3 3.6 -0.3
v 0.3 3.6 -0.3

# faces
f 3/3/1 2/3/1 1/3/1
f 4/3/1 2/3/1 3/3/1
f 7/4/1 6/4/1 5/4/1
f 8/4/1 6/4/1 7/4/1
f 11/3/1 10/3/1 9/3/1
f 12/3/1 10/3/1 11/3/1
f 13/3/1 10/3/1 12/3/1
f 14/3/1 10/3/1 13/3/1
f 18/3/1 16/3/1 15/3/1
f 19/3/1 16/3/1 18/3/1
f 21/3/1 18/3/1 17/3/1
f 23/3/1 21/3/1 17/3/1
f 23/3/1 22/3/1 21/3/1
f 24/3/1 22/3/1 23/3/1
f 25/3/1 22/3/1 24/3/1
f 26/3/1 20/3/1 19/3/1
f 27/3/1 25/3/1 24/3/1
f 27/3/1 26/3/1 25/3/1
f 27/3/1 20/3/1 26/3/1
f 28/3/1 20/3/1 27/3/1
f 29/3/1 27/3/1 24/3/1
f 30/3/1 27/3/1 29/3/1
f 33/1/1 32/1/1 31/1/1
f 34/1/1 32/1/1 33/1/1
f 35/1/1 32/1/1 34/1/1
f 36/1/1 32/1/1 35/1/1
f 39/3/1 38/3/1 37/3/1
f 40/3/1 38/3/1 39/3/1
f 44/3/1 42/3/1 41/3/1
f 45/3/1 42/3/1 44/3/1
f 46/3/1 44/3/1 43/3/1
f 47/3/1 44/3/1 46/3/1
f 48/3/1 44/3/1 47/3/1
f 49/3/1 44/3/1 48/3/1
f 50/3/1 48/3/1 47/3/1
f 51/3/1 48/3/1 50/3/1
f 54/2/1 53/2/1 52/2/1
f 55/2/1 53/2/1 54/2/1
f 59/1/1 58/1/1 57/1/1
f 60/1/1 58/1/1 59/1/1
f 62/1/1 56/1/1 55/1/1
f 63/1/1 56/1/1 62/1/1
f 64/1/1 62/1/1 61/1/1
f 65/1/1 62/1/1 64/1/1
f 71/3/1 67/3/1 66/3/1
f 72/3/1 67/3/1 71/3/1
f 73/3/1 69/3/1 68/3/1
f 74/3/1 69/3/1 73/3/1
f 75/3/1 71/3/1 70/3/1
f 76/3/1 71/3/1 75/3/1
f 79/1/1 78/1/1 77/1/1
f 80/1/1 78/1/1 79/1/1
f 83/4/1 82/4/1 81/4/1
f 84/4/1 82/4/1 83/4/1
f 87/3/1 86/3/1 85/3/1
f 88/3/1 86/3/1 87/3/1
f 89/3/2 90/3/2 91/3/2
f 91/3/2 90/3/2 92/3/2
f 93/4/2 94/4/2 95/4/2
f 95/4/2 94/4/2 96/4/2
f 97/3/2 98/3/2 102/3/2
f 102/3/2 98/3/2 103/3/2
f 99/3/2 100/3/2 104/3/2
f 104/3/2 100/3/2 105/3/2
f 101/3/2 102/3/2 106/3/2
f 106/3/2 102/3/2 107/3/2
f 108/1/2 109/1/2 110/1/2
f 110/1/2 109/1/2 111/1/2
f 112/3/2 113/3/2 114/3/2
f 114/3/2 113/3/2 115/3/2
f 116/3/2 117/3/2 119/3/2
f 119/3/2 117/3/2 120/3/2
f 118/3/2 119/3/2 121/3/2
f 121/3/2 119/3/2 122/3/2
f 122/3/2 119/3/2 123/3/2
f 123/3/2 119/3/2 124/3/2
f 122/3/2 123/3/2 125/3/2
f 125/3/2 123/3/2 126/3/2
f 127/2/2 128/2/2 129/2/2
f 129/2/2 128/2/2 130/2/2
f 132/1/2 133/1/2 134/1/2
f 134/1/2 133/1/2 135/1/2
f 130/1/2 131/1/2 137/1/2
f 137/1/2 131/1/2 138/1/2
f 136/1/2 137/1/2 139/1/2
f 139/1/2 137/1/2 140/1/2
f 141/3/2 142/3/2 144/3/2
f 144/3/2 142/3/2 145/3/2
f 143/3/2 144/3/2 147/3/2
f 147/3/2 144/3/2 148/3/2
f 147/5/2 148/5/2 149/5/2
f 149/5/2 148/5/2 150/5/2
f 149/3/2 150/3/2 151/3/2
f 149/3/2 151/3/2 153/3/2
f 151/3/2 152/3/2 153/3/2
f 153/3/2 152/3/2 154/3/2
f 154/3/2 152/3/2 155/3/2
f 145/3/2 146/3/2 156/3/2
f 154/3/2 155/3/2 157/3/2
f 155/3/2 156/3/2 157/3/2
f 156/3/2 146/3/2 157/3/2
f 157/3/2 146/3/2 158/3/2
f 154/3/2 157/3/2 159/3/2
f 159/3/2 157/3/2 160/3/2
f 161/1/2 162/1/2 163/1/2
f 163/1/2 162/1/2 164/1/2
f 164/1/2 162/1/2 165/1/2
f 165/1/2 162/1/2 166/1/2
f 167/3/2 168/3/2 169/3/2
f 169/3/2 168/3/2 170/3/2
f 170/3/2 168/3/2 171/3/2
f 171/3/2 168/3/2 172/3/2
f 173/4/2 174/4/2 175/4/2
f 175/4/2 174/4/2 176/4/2
f 177/3/2 178/3/2 179/3/2
f 179/3/2 178/3/2 180/3/2
f 183/1/3 182/1/3 181/1/3
f 184/1/3 182/1/3 183/1/3
f 187/1/3 186/1/3 185/1/3
f 188/1/3 186/1/3 187/1/3
f 191/1/3 190/1/3 189/1/3
f 192/1/3 190/1/3 191/1/3
f 195/1/3 194/1/3 193/1/3
f 196/1/3 194/1/3 195/1/3
f 197/1/3 195/1/3 193/1/3
f 199/1/3 197/1/3 193/1/3
f 199/1/3 198/1/3 197/1/3
f 200/1/3 198/1/3 199/1/3
f 203/3/3 202/3/3 201/3/3
f 205/3/3 203/3/3 201/3/3
f 205/3/3 204/3/3 203/3/3
f 206/3/3 204/3/3 205/3/3
f 207/3/3 204/3/3 206/3/3
f 208/3/3 204/3/3 207/3/3
f 209/3/3 205/3/3 201/3/3
f 210/5/3 206/5/3 205/5/3
f 210/3/3 205/3/3 209/3/3
f 211/3/3 207/3/3 206/3/3
f 211/5/3 206/5/3 210/5/3
f 212/3/3 207/3/3 211/3/3
f 216/3/3 214/3/3 213/3/3
f 217/3/3 214/3/3 216/3/3
f 220/3/3 219/3/3 218/3/3
f 221/3/3 219/3/3 220/3/3
f 222/3/3 219/3/3 221/3/3
f 225/3/3 223/3/3 222/3/3
f 225/3/3 222/3/3 221/3/3
f 226/3/3 223/3/3 225/3/3
f 227/3/3 223/3/3 226/3/3
f 228/3/3 216/3/3 215/3/3
f 229/3/3 216/3/3 228/3/3
f 233/3/3 225/3/3 224/3/3
f 233/3/3 226/3/3 225/3/3
f 234/3/3 226/3/3 233/3/3
f 235/3/3 232/3/3 231/3/3
f 235/3/3 231/3/3 230/3/3
f 235/3/3 230/3/3 229/3/3
f 236/3/3 232/3/3 235/3/3
f 241/3/3 240/3/3 239/3/3
f 242/3/3 240/3/3 241/3/3
f 247/1/3 244/1/3 243/1/3
f 249/4/3 238/4/3 237/4/3
f 250/4/3 238/4/3 249/4/3
f 253/2/3 246/2/3 245/2/3
f 254/2/3 246/2/3 253/2/3
f 255/2/3 253/2/3 245/2/3
f 255/6/3 254/6/3 253/6/3
f 256/2/3 246/2/3 254/2/3
f 256/6/3 254/6/3 255/6/3
f 257/2/3 255/2/3 245/2/3
f 257/2/3 256/2/3 255/2/3
f 258/2/3 246/2/3 256/2/3
f 258/2/3 256/2/3 257/2/3
f 261/3/3 252/3/3 251/3/3
f 262/3/3 252/3/3 261/3/3
f 263/2/3 257/2/3 245/2/3
f 263/6/3 258/6/3 257/6/3
f 264/2/3 246/2/3 258/2/3
f 264/6/3 258/6/3 263/6/3
f 265/2/3 263/2/3 245/2/3
f 265/2/3 264/2/3 263/2/3
f 266/2/3 246/2/3 264/2/3
f 266/2/3 264/2/3 265/2/3
f 267/1/3 248/1/3 247/1/3
f 267/1/3 247/1/3 243/1/3
f 268/1/3 248/1/3 267/1/3
f 271/1/3 267/1/3 243/1/3
f 272/1/3 267/1/3 271/1/3
f 273/3/3 270/3/3 269/3/3
f 274/3/3 270/3/3 273/3/3
f 275/4/3 260/4/3 259/4/3
f 276/4/3 260/4/3 275/4/3
f 279/3/3 278/3/3 277/3/3
f 280/3/3 278/3/3 279/3/3
f 283/3/3 282/3/3 281/3/3
f 284/3/3 282/3/3 283/3/3
f 287/3/3 286/3/3 285/3/3
f 288/3/3 286/3/3 287/3/3
f 291/3/3 290/3/3 289/3/3
f 292/3/3 290/3/3 291/3/3
f 293/3/4 294/3/4 295/3/4
f 295/3/4 294/3/4 296/3/4
f 297/3/4 298/3/4 299/3/4
f 299/3/4 298/3/4 300/3/4
f 301/3/4 302/3/4 303/3/4
f 303/3/4 302/3/4 304/3/4
f 305/3/4 306/3/4 307/3/4
f 307/3/4 306/3/4 308/3/4
f 311/3/4 312/3/4 314/3/4
f 314/3/4 312/3/4 315/3/4
f 316/3/4 317/3/4 320/3/4
f 320/3/4 317/3/4 321/3/4
f 318/1/4 319/1/4 324/1/4
f 324/1/4 319/1/4 325/1/4
f 309/4/4 310/4/4 327/4/4
f 327/4/4 310/4/4 328/4/4
f 321/3/4 322/3/4 329/3/4
f 329/3/4 322/3/4 330/3/4
f 330/3/4 331/3/4 335/3/4
f 335/3/4 331/3/4 336/3/4
f 334/3/4 335/3/4 338/3/4
f 338/3/4 335/3/4 339/3/4
f 323/2/4 324/2/4 340/2/4
f 340/2/4 324/2/4 341/2/4
f 325/1/4 326/1/4 342/1/4
f 342/1/4 326/1/4 343/1/4
f 313/3/4 314/3/4 344/3/4
f 344/3/4 314/3/4 345/3/4
f 337/3/4 338/3/4 347/3/4
f 347/3/4 338/3/4 348/3/4
f 341/1/4 342/1/4 349/1/4
f 349/1/4 342/1/4 350/1/4
f 345/3/4 346/3/4 351/3/4
f 351/3/4 346/3/4 352/3/4
f 332/4/4 333/4/4 353/4/4
f 353/4/4 333/4/4 354/4/4
f 355/3/4 356/3/4 357/3/4
f 357/3/4 358/3/4 361/3/4
f 357/3/4 361/3/4 363/3/4
f 361/3/4 362/3/4 363/3/4
f 363/3/4 362/3/4 364/3/4
f 355/3/4 357/3/4 365/3/4
f 357/3/4 363/3/4 365/3/4
f 365/3/4 363/3/4 366/3/4
f 359/1/4 360/1/4 367/1/4
f 367/1/4 360/1/4 368/1/4
f 355/3/4 365/3/4 369/3/4
f 369/3/4 365/3/4 370/3/4
f 375/4/5 372/4/5 371/4/5
f 376/4/5 372/4/5 375/4/5
f 377/4/5 374/4/5 373/4/5
f 378/4/5 374/4/5 377/4/5
f 381/3/5 380/3/5 379/3/5
f 382/3/5 380/3/5 381/3/5
f 386/3/5 384/3/5 383/3/5
f 387/3/5 384/3/5 386/3/5
f 393/3/5 390/3/5 389/3/5
f 394/3/5 390/3/5 393/3/5
f 395/3/5 392/3/5 391/3/5
f 396/3/5 392/3/5 395/3/5
f 397/3/5 386/3/5 385/3/5
f 398/3/5 386/3/5 397/3/5
f 399/3/5 388/3/5 387/3/5
f 400/3/5 388/3/5 399/3/5
f 401/3/5 399/3/5 398/3/5
f 402/3/5 399/3/5 401/3/5
f 405/2/5 404/2/5 403/2/5
f 406/2/5 404/2/5 405/2/5
f 409/1/5 408/1/5 407/1/5
f 410/1/5 408/1/5 409/1/5
f 411/1/5 409/1/5 407/1/5
f 412/1/5 409/1/5 411/1/5
f 413/1/5 408/1/5 410/1/5
f 414/1/5 408/1/5 413/1/5
f 415/1/5 413/1/5 412/1/5
f 416/1/5 413/1/5 415/1/5
f 420/1/5 418/1/5 417/1/5
f 421/1/5 418/1/5 420/1/5
f 423/1/5 420/1/5 419/1/5
f 423/1/5 422/1/5 421/1/5
f 423/1/5 421/1/5 420/1/5
f 424/1/5 422/1/5 423/1/5
f 425/4/6 426/4/6 429/4/6
f 429/4/6 426/4/6 430/4/6
f 427/4/6 428/4/6 431/4/6
f 431/4/6 428/4/6 432/4/6
f 433/3/6 434/3/6 437/3/6
f 437/3/6 434/3/6 438/3/6
f 435/3/6 436/3/6 439/3/6
f 439/3/6 436/3/6 440/3/6
f 441/3/6 442/3/6 445/3/6
f 445/3/6 442/3/6 446/3/6
f 443/3/6 444/3/6 447/3/6
f 447/3/6 444/3/6 448/3/6
f 449/3/6 450/3/6 453/3/6
f 453/3/6 450/3/6 454/3/6
f 451/3/6 452/3/6 455/3/6
f 455/3/6 452/3/6 456/3/6
f 457/3/6 458/3/6 461/3/6
f 461/3/6 458/3/6 462/3/6
f 459/3/6 460/3/6 463/3/6
f 463/3/6 460/3/6 464/3/6
f 465/3/6 466/3/6 467/3/6
f 467/3/6 466/3/6 468/3/6
f 469/3/6 470/3/6 473/3/6
f 473/3/6 470/3/6 474/3/6
f 471/3/6 472/3/6 475/3/6
f 475/3/6 472/3/6 476/3/6
f 477/3/6 478/3/6 481/3/6
f 481/3/6 478/3/6 482/3/6
f 479/3/6 480/3/6 485/3/6
f 485/3/6 480/3/6 486/3/6
f 482/3/6 483/3/6 487/3/6
f 487/3/6 483/3/6 488/3/6
f 484/3/6 485/3/6 489/3/6
f 489/3/6 485/3/6 490/3/6
f 491/3/6 492/3/6 493/3/6
f 493/3/6 492/3/6 494/3/6
f 491/3/6 493/3/6 495/3/6
f 495/3/6 493/3/6 496/3/6
f 494/3/6 492/3/6 497/3/6
f 497/3/6 492/3/6 498/3/6
f 499/3/6 500/3/6 503/3/6
f 503/3/6 500/3/6 504/3/6
f 501/3/6 502/3/6 505/3/6
f 505/3/6 502/3/6 506/3/6
f 504/3/6 505/3/6 507/3/6
f 507/3/6 505/3/6 508/3/6
f 509/3/6 510/3/6 512/3/6
f 512/3/6 510/3/6 513/3/6
f 511/3/6 512/3/6 515/3/6
f 513/3/6 514/3/6 515/3/6
f 512/3/6 513/3/6 515/3/6
f 515/3/6 514/3/6 516/3/6
f 516/3/6 514/3/6 517/3/6
f 517/3/6 514/3/6 518/3/6
f 516/3/6 517/3/6 519/3/6
f 519/3/6 517/3/6 520/3/6
f 521/1/6 522/1/6 524/1/6
f 524/1/6 522/1/6 525/1/6
f 523/1/6 524/1/6 528/1/6
f 525/1/6 526/1/6 528/1/6
f 524/1/6 525/1/6 528/1/6
f 528/1/6 526/1/6 529/1/6
f 527/1/6 528/1/6 531/1/6
f 529/1/6 530/1/6 531/1/6
f 528/1/6 529/1/6 531/1/6
f 531/1/6 530/1/6 532/1/6
f 533/1/6 534/1/6 537/1/6
f 537/1/6 534/1/6 538/1/6
f 535/1/6 536/1/6 539/1/6
f 539/1/6 536/1/6 540/1/6
f 538/1/6 539/1/6 541/1/6
f 541/1/6 539/1/6 542/1/6
f 543/1/6 544/1/6 545/1/6
f 545/1/6 544/1/6 546/1/6
