# MagicaVoxel @ Ephtracy

# group
o defaulthat

# material
mtllib player_character_blue-4-defaulthat.mtl
usemtl palette

# normals
vn -1 0 0
vn 1 0 0
vn 0 0 1
vn 0 0 -1
vn 0 -1 0
vn 0 1 0

# texcoords
vt 0.298828 0.5
vt 0.595703 0.5

# verts
v -0.4 0 0.4
v -0.4 0 -0.5
v -0.4 0.1 0.6
v -0.4 0.1 0.4
v -0.4 0.2 0.6
v -0.4 0.2 0.1
v -0.4 0.3 0.1
v -0.4 0.3 -0.5
v -0.3 0 -0.5
v -0.3 0 -0.6
v -0.3 0.3 0.1
v -0.3 0.3 -0.5
v -0.3 0.3 -0.6
v -0.3 0.4 0.1
v -0.3 0.4 -0.5
v -0.2 0.2 0.2
v -0.2 0.2 0.1
v -0.2 0.3 0.2
v -0.2 0.3 0.1
v -0.1 0.3 0.2
v -0.1 0.3 0.1
v -0.1 0.4 0.2
v -0.1 0.4 0.1
v 0.3 0 0.1
v 0.3 0 -0.5
v 0.3 0.1 0.1
v 0.3 0.1 -0.5
v -0.3 0 0.1
v -0.3 0 -0.5
v -0.3 0.1 0.1
v -0.3 0.1 -0.5
v 0.1 0.3 0.2
v 0.1 0.3 0.1
v 0.1 0.4 0.2
v 0.1 0.4 0.1
v 0.2 0.2 0.2
v 0.2 0.2 0.1
v 0.2 0.3 0.2
v 0.2 0.3 0.1
v 0.3 0 -0.5
v 0.3 0 -0.6
v 0.3 0.3 0.1
v 0.3 0.3 -0.5
v 0.3 0.3 -0.6
v 0.3 0.4 0.1
v 0.3 0.4 -0.5
v 0.4 0 0.4
v 0.4 0 -0.5
v 0.4 0.1 0.6
v 0.4 0.1 0.4
v 0.4 0.2 0.6
v 0.4 0.2 0.1
v 0.4 0.3 0.1
v 0.4 0.3 -0.5
v -0.4 0.1 0.6
v -0.4 0.2 0.6
v 0.4 0.1 0.6
v 0.4 0.2 0.6
v -0.4 0 0.4
v -0.4 0.1 0.4
v 0.4 0 0.4
v 0.4 0.1 0.4
v -0.2 0.2 0.2
v -0.2 0.3 0.2
v -0.1 0.3 0.2
v -0.1 0.4 0.2
v 0.1 0.3 0.2
v 0.1 0.4 0.2
v 0.2 0.2 0.2
v 0.2 0.3 0.2
v -0.4 0.2 0.1
v -0.4 0.3 0.1
v -0.3 0.3 0.1
v -0.3 0.4 0.1
v -0.2 0.2 0.1
v -0.2 0.3 0.1
v -0.1 0.3 0.1
v -0.1 0.4 0.1
v 0.1 0.3 0.1
v 0.1 0.4 0.1
v 0.2 0.2 0.1
v 0.2 0.3 0.1
v 0.3 0.3 0.1
v 0.3 0.4 0.1
v 0.4 0.2 0.1
v 0.4 0.3 0.1
v -0.3 0 -0.5
v -0.3 0.1 -0.5
v 0.3 0 -0.5
v 0.3 0.1 -0.5
v -0.3 0 0.1
v -0.3 0.1 0.1
v 0.3 0 0.1
v 0.3 0.1 0.1
v -0.4 0 -0.5
v -0.4 0.3 -0.5
v -0.3 0 -0.5
v -0.3 0.3 -0.5
v -0.3 0.4 -0.5
v 0.3 0 -0.5
v 0.3 0.3 -0.5
v 0.3 0.4 -0.5
v 0.4 0 -0.5
v 0.4 0.3 -0.5
v -0.3 0 -0.6
v -0.3 0.3 -0.6
v 0.3 0 -0.6
v 0.3 0.3 -0.6
v -0.4 0 0.4
v 0.4 0 0.4
v -0.3 0 0.1
v 0.3 0 0.1
v -0.4 0 -0.5
v -0.3 0 -0.5
v 0.3 0 -0.5
v 0.4 0 -0.5
v -0.3 0 -0.6
v 0.3 0 -0.6
v -0.4 0.1 0.6
v 0.4 0.1 0.6
v -0.4 0.1 0.4
v 0.4 0.1 0.4
v -0.3 0.1 0.1
v 0.3 0.1 0.1
v -0.3 0.1 -0.5
v 0.3 0.1 -0.5
v -0.4 0.2 0.6
v 0.4 0.2 0.6
v -0.2 0.2 0.2
v 0.2 0.2 0.2
v -0.4 0.2 0.1
v -0.2 0.2 0.1
v 0.2 0.2 0.1
v 0.4 0.2 0.1
v -0.2 0.3 0.2
v -0.1 0.3 0.2
v 0.1 0.3 0.2
v 0.2 0.3 0.2
v -0.4 0.3 0.1
v -0.3 0.3 0.1
v -0.2 0.3 0.1
v -0.1 0.3 0.1
v 0.1 0.3 0.1
v 0.2 0.3 0.1
v 0.3 0.3 0.1
v 0.4 0.3 0.1
v -0.4 0.3 -0.5
v -0.3 0.3 -0.5
v 0.3 0.3 -0.5
v 0.4 0.3 -0.5
v -0.3 0.3 -0.6
v 0.3 0.3 -0.6
v -0.1 0.4 0.2
v 0.1 0.4 0.2
v -0.3 0.4 0.1
v -0.1 0.4 0.1
v 0.1 0.4 0.1
v 0.3 0.4 0.1
v -0.3 0.4 -0.5
v 0.3 0.4 -0.5

# faces
f 4/2/1 2/2/1 1/2/1
f 5/2/1 4/2/1 3/2/1
f 6/2/1 2/2/1 4/2/1
f 6/2/1 4/2/1 5/2/1
f 7/2/1 2/2/1 6/2/1
f 8/2/1 2/2/1 7/2/1
f 12/2/1 10/2/1 9/2/1
f 13/2/1 10/2/1 12/2/1
f 14/2/1 12/2/1 11/2/1
f 15/2/1 12/2/1 14/2/1
f 18/1/1 17/1/1 16/1/1
f 19/1/1 17/1/1 18/1/1
f 22/1/1 21/1/1 20/1/1
f 23/1/1 21/1/1 22/1/1
f 26/2/1 25/2/1 24/2/1
f 27/2/1 25/2/1 26/2/1
f 28/2/2 29/2/2 30/2/2
f 30/2/2 29/2/2 31/2/2
f 32/1/2 33/1/2 34/1/2
f 34/1/2 33/1/2 35/1/2
f 36/1/2 37/1/2 38/1/2
f 38/1/2 37/1/2 39/1/2
f 40/2/2 41/2/2 43/2/2
f 43/2/2 41/2/2 44/2/2
f 42/2/2 43/2/2 45/2/2
f 45/2/2 43/2/2 46/2/2
f 47/2/2 48/2/2 50/2/2
f 49/2/2 50/2/2 51/2/2
f 50/2/2 48/2/2 52/2/2
f 51/2/2 50/2/2 52/2/2
f 52/2/2 48/2/2 53/2/2
f 53/2/2 48/2/2 54/2/2
f 57/2/3 56/2/3 55/2/3
f 58/2/3 56/2/3 57/2/3
f 61/2/3 60/2/3 59/2/3
f 62/2/3 60/2/3 61/2/3
f 65/1/3 64/1/3 63/1/3
f 67/1/3 65/1/3 63/1/3
f 67/1/3 66/1/3 65/1/3
f 68/1/3 66/1/3 67/1/3
f 69/1/3 67/1/3 63/1/3
f 70/1/3 67/1/3 69/1/3
f 73/2/3 72/2/3 71/2/3
f 75/2/3 73/2/3 71/2/3
f 75/2/3 74/2/3 73/2/3
f 76/2/3 74/2/3 75/2/3
f 77/2/3 74/2/3 76/2/3
f 78/2/3 74/2/3 77/2/3
f 82/2/3 80/2/3 79/2/3
f 83/2/3 80/2/3 82/2/3
f 83/2/3 82/2/3 81/2/3
f 84/2/3 80/2/3 83/2/3
f 85/2/3 83/2/3 81/2/3
f 86/2/3 83/2/3 85/2/3
f 89/2/3 88/2/3 87/2/3
f 90/2/3 88/2/3 89/2/3
f 91/2/4 92/2/4 93/2/4
f 93/2/4 92/2/4 94/2/4
f 95/2/4 96/2/4 97/2/4
f 97/2/4 96/2/4 98/2/4
f 98/2/4 99/2/4 101/2/4
f 101/2/4 99/2/4 102/2/4
f 100/2/4 101/2/4 103/2/4
f 103/2/4 101/2/4 104/2/4
f 105/2/4 106/2/4 107/2/4
f 107/2/4 106/2/4 108/2/4
f 111/2/5 110/2/5 109/2/5
f 112/2/5 110/2/5 111/2/5
f 113/2/5 111/2/5 109/2/5
f 114/2/5 111/2/5 113/2/5
f 115/2/5 110/2/5 112/2/5
f 116/2/5 110/2/5 115/2/5
f 117/2/5 115/2/5 114/2/5
f 118/2/5 115/2/5 117/2/5
f 121/2/5 120/2/5 119/2/5
f 122/2/5 120/2/5 121/2/5
f 125/2/5 124/2/5 123/2/5
f 126/2/5 124/2/5 125/2/5
f 127/2/6 128/2/6 129/2/6
f 129/2/6 128/2/6 130/2/6
f 127/2/6 129/2/6 131/2/6
f 131/2/6 129/2/6 132/2/6
f 130/2/6 128/2/6 133/2/6
f 133/2/6 128/2/6 134/2/6
f 135/1/6 136/1/6 141/1/6
f 141/1/6 136/1/6 142/1/6
f 137/1/6 138/1/6 143/1/6
f 143/1/6 138/1/6 144/1/6
f 139/2/6 140/2/6 147/2/6
f 147/2/6 140/2/6 148/2/6
f 145/2/6 146/2/6 149/2/6
f 149/2/6 146/2/6 150/2/6
f 148/2/6 149/2/6 151/2/6
f 151/2/6 149/2/6 152/2/6
f 153/1/6 154/1/6 156/1/6
f 156/1/6 154/1/6 157/1/6
f 155/2/6 156/2/6 159/2/6
f 157/2/6 158/2/6 159/2/6
f 156/2/6 157/2/6 159/2/6
f 159/2/6 158/2/6 160/2/6
