# MagicaVoxel @ Ephtracy

# group
o bigpacket

# material
mtllib tutorial-40-bigpacket.mtl
usemtl palette

# normals
vn -1 0 0
vn 1 0 0
vn 0 0 1
vn 0 0 -1
vn 0 -1 0
vn 0 1 0

# texcoords
vt 0.853516 0.5
vt 0.888672 0.5
vt 0.916016 0.5

# verts
v -0.5 0 0.5
v -0.5 0 -0.5
v -0.5 1 0.5
v -0.5 1 -0.5
v 0.5 0 0.5
v 0.5 0 -0.5
v 0.5 0.4 0.5
v 0.5 0.4 0.1
v 0.5 0.7 0.5
v 0.5 0.7 0.1
v 0.5 1 0.5
v 0.5 1 -0.5
v -0.5 0 0.5
v -0.5 1 0.5
v -0.3 0 0.5
v -0.3 1 0.5
v -0.1 0 0.5
v -0.1 1 0.5
v 0.1 0 0.5
v 0.1 0.4 0.5
v 0.1 0.7 0.5
v 0.1 1 0.5
v 0.3 0 0.5
v 0.3 0.4 0.5
v 0.3 0.7 0.5
v 0.3 1 0.5
v 0.5 0 0.5
v 0.5 0.4 0.5
v 0.5 0.7 0.5
v 0.5 1 0.5
v -0.5 0 -0.5
v -0.5 1 -0.5
v -0.3 0 -0.5
v -0.3 1 -0.5
v -0.1 0 -0.5
v -0.1 1 -0.5
v 0.1 0 -0.5
v 0.1 1 -0.5
v 0.3 0 -0.5
v 0.3 1 -0.5
v 0.5 0 -0.5
v 0.5 1 -0.5
v -0.5 0 0.5
v -0.3 0 0.5
v -0.1 0 0.5
v 0.1 0 0.5
v 0.3 0 0.5
v 0.5 0 0.5
v -0.5 0 -0.5
v -0.3 0 -0.5
v -0.1 0 -0.5
v 0.1 0 -0.5
v 0.3 0 -0.5
v 0.5 0 -0.5
v -0.5 1 0.5
v -0.3 1 0.5
v -0.1 1 0.5
v 0.1 1 0.5
v 0.3 1 0.5
v 0.5 1 0.5
v -0.5 1 -0.5
v -0.3 1 -0.5
v -0.1 1 -0.5
v 0.1 1 -0.5
v 0.3 1 -0.5
v 0.5 1 -0.5

# faces
f 3/2/1 2/2/1 1/2/1
f 4/2/1 2/2/1 3/2/1
f 5/2/2 6/2/2 7/2/2
f 7/2/2 6/2/2 8/2/2
f 7/1/2 8/1/2 9/1/2
f 8/2/2 6/2/2 10/2/2
f 9/1/2 8/1/2 10/1/2
f 9/2/2 10/2/2 11/2/2
f 10/2/2 6/2/2 12/2/2
f 11/2/2 10/2/2 12/2/2
f 15/2/3 14/2/3 13/2/3
f 16/2/3 14/2/3 15/2/3
f 17/3/3 16/3/3 15/3/3
f 18/3/3 16/3/3 17/3/3
f 19/2/3 18/2/3 17/2/3
f 20/2/3 18/2/3 19/2/3
f 21/2/3 18/2/3 20/2/3
f 22/2/3 18/2/3 21/2/3
f 23/3/3 20/3/3 19/3/3
f 24/1/3 21/1/3 20/1/3
f 24/3/3 20/3/3 23/3/3
f 25/3/3 22/3/3 21/3/3
f 25/1/3 21/1/3 24/1/3
f 26/3/3 22/3/3 25/3/3
f 27/2/3 24/2/3 23/2/3
f 28/1/3 25/1/3 24/1/3
f 28/2/3 24/2/3 27/2/3
f 29/2/3 26/2/3 25/2/3
f 29/1/3 25/1/3 28/1/3
f 30/2/3 26/2/3 29/2/3
f 31/2/4 32/2/4 33/2/4
f 33/2/4 32/2/4 34/2/4
f 33/3/4 34/3/4 35/3/4
f 35/3/4 34/3/4 36/3/4
f 35/2/4 36/2/4 37/2/4
f 37/2/4 36/2/4 38/2/4
f 37/3/4 38/3/4 39/3/4
f 39/3/4 38/3/4 40/3/4
f 39/2/4 40/2/4 41/2/4
f 41/2/4 40/2/4 42/2/4
f 49/2/5 44/2/5 43/2/5
f 50/3/5 45/3/5 44/3/5
f 50/2/5 44/2/5 49/2/5
f 51/2/5 46/2/5 45/2/5
f 51/3/5 45/3/5 50/3/5
f 52/3/5 47/3/5 46/3/5
f 52/2/5 46/2/5 51/2/5
f 53/2/5 48/2/5 47/2/5
f 53/3/5 47/3/5 52/3/5
f 54/2/5 48/2/5 53/2/5
f 55/2/6 56/2/6 61/2/6
f 56/3/6 57/3/6 62/3/6
f 61/2/6 56/2/6 62/2/6
f 57/2/6 58/2/6 63/2/6
f 62/3/6 57/3/6 63/3/6
f 58/3/6 59/3/6 64/3/6
f 63/2/6 58/2/6 64/2/6
f 59/2/6 60/2/6 65/2/6
f 64/3/6 59/3/6 65/3/6
f 65/2/6 60/2/6 66/2/6
