# MagicaVoxel @ Ephtracy

# group
o funkypacket5

# material
mtllib tutorial-6-funkypacket5.mtl
usemtl palette

# normals
vn -1 0 0
vn 1 0 0
vn 0 0 1
vn 0 0 -1
vn 0 -1 0
vn 0 1 0

# texcoords
vt 0.888672 0.5
vt 0.916016 0.5

# verts
v 0 0.1 0.2
v 0 0.1 0.1
v 0 0.1 0
v 0 0.1 -0.2
v 0 0.1 -0.3
v 0 0.1 -0.4
v 0 0.1 -0.5
v 0 0.2 0
v 0 0.2 -0.1
v 0 0.2 -0.2
v 0 0.2 -0.5
v 0 0.2 -0.6
v 0 0.2 -0.7
v 0 0.2 -0.8
v 0 0.3 0.2
v 0 0.3 0.1
v 0 0.3 0
v 0 0.3 -0.1
v 0 0.3 -0.3
v 0 0.3 -0.4
v 0 0.3 -0.5
v 0 0.3 -0.6
v 0 0.3 -0.7
v 0 0.3 -0.8
v 0 0.4 -0.1
v 0 0.4 -0.2
v 0 0.5 -0.2
v 0 0.5 -0.3
v 0.1 0.1 0.2
v 0.1 0.1 0.1
v 0.1 0.1 0
v 0.1 0.1 -0.2
v 0.1 0.1 -0.3
v 0.1 0.1 -0.4
v 0.1 0.1 -0.5
v 0.1 0.2 0
v 0.1 0.2 -0.1
v 0.1 0.2 -0.2
v 0.1 0.2 -0.5
v 0.1 0.2 -0.6
v 0.1 0.2 -0.7
v 0.1 0.2 -0.8
v 0.1 0.3 0.2
v 0.1 0.3 0.1
v 0.1 0.3 0
v 0.1 0.3 -0.1
v 0.1 0.3 -0.3
v 0.1 0.3 -0.4
v 0.1 0.3 -0.5
v 0.1 0.3 -0.6
v 0.1 0.3 -0.7
v 0.1 0.3 -0.8
v 0.1 0.4 -0.1
v 0.1 0.4 -0.2
v 0.1 0.5 -0.2
v 0.1 0.5 -0.3
v 0 0.1 0.2
v 0 0.3 0.2
v 0.1 0.1 0.2
v 0.1 0.3 0.2
v 0 0.3 -0.1
v 0 0.4 -0.1
v 0.1 0.3 -0.1
v 0.1 0.4 -0.1
v 0 0.1 -0.2
v 0 0.2 -0.2
v 0 0.4 -0.2
v 0 0.5 -0.2
v 0.1 0.1 -0.2
v 0.1 0.2 -0.2
v 0.1 0.4 -0.2
v 0.1 0.5 -0.2
v 0 0.1 0
v 0 0.2 0
v 0.1 0.1 0
v 0.1 0.2 0
v 0 0.3 -0.3
v 0 0.5 -0.3
v 0.1 0.3 -0.3
v 0.1 0.5 -0.3
v 0 0.1 -0.5
v 0 0.2 -0.5
v 0.1 0.1 -0.5
v 0.1 0.2 -0.5
v 0 0.2 -0.8
v 0 0.3 -0.8
v 0.1 0.2 -0.8
v 0.1 0.3 -0.8
v 0 0.1 0.2
v 0.1 0.1 0.2
v 0 0.1 0.1
v 0.1 0.1 0.1
v 0 0.1 0
v 0.1 0.1 0
v 0 0.1 -0.2
v 0.1 0.1 -0.2
v 0 0.1 -0.3
v 0.1 0.1 -0.3
v 0 0.1 -0.4
v 0.1 0.1 -0.4
v 0 0.1 -0.5
v 0.1 0.1 -0.5
v 0 0.2 0
v 0.1 0.2 0
v 0 0.2 -0.1
v 0.1 0.2 -0.1
v 0 0.2 -0.2
v 0.1 0.2 -0.2
v 0 0.2 -0.5
v 0.1 0.2 -0.5
v 0 0.2 -0.6
v 0.1 0.2 -0.6
v 0 0.2 -0.7
v 0.1 0.2 -0.7
v 0 0.2 -0.8
v 0.1 0.2 -0.8
v 0 0.3 0.2
v 0.1 0.3 0.2
v 0 0.3 0.1
v 0.1 0.3 0.1
v 0 0.3 0
v 0.1 0.3 0
v 0 0.3 -0.1
v 0.1 0.3 -0.1
v 0 0.3 -0.3
v 0.1 0.3 -0.3
v 0 0.3 -0.4
v 0.1 0.3 -0.4
v 0 0.3 -0.5
v 0.1 0.3 -0.5
v 0 0.3 -0.6
v 0.1 0.3 -0.6
v 0 0.3 -0.7
v 0.1 0.3 -0.7
v 0 0.3 -0.8
v 0.1 0.3 -0.8
v 0 0.4 -0.1
v 0.1 0.4 -0.1
v 0 0.4 -0.2
v 0.1 0.4 -0.2
v 0 0.5 -0.2
v 0.1 0.5 -0.2
v 0 0.5 -0.3
v 0.1 0.5 -0.3

# faces
f 8/1/1 3/1/1 2/1/1
f 10/2/1 5/2/1 4/2/1
f 11/2/1 7/2/1 6/2/1
f 15/2/1 2/2/1 1/2/1
f 16/1/1 8/1/1 2/1/1
f 16/2/1 2/2/1 15/2/1
f 17/2/1 9/2/1 8/2/1
f 17/1/1 8/1/1 16/1/1
f 18/1/1 10/1/1 9/1/1
f 18/2/1 9/2/1 17/2/1
f 19/1/1 6/1/1 5/1/1
f 19/2/1 5/2/1 10/2/1
f 20/2/1 11/2/1 6/2/1
f 20/1/1 6/1/1 19/1/1
f 21/1/1 12/1/1 11/1/1
f 21/2/1 11/2/1 20/2/1
f 22/2/1 13/2/1 12/2/1
f 22/1/1 12/1/1 21/1/1
f 23/1/1 14/1/1 13/1/1
f 23/2/1 13/2/1 22/2/1
f 24/1/1 14/1/1 23/1/1
f 25/1/1 10/1/1 18/1/1
f 26/2/1 19/2/1 10/2/1
f 26/1/1 10/1/1 25/1/1
f 27/2/1 19/2/1 26/2/1
f 28/2/1 19/2/1 27/2/1
f 30/1/2 31/1/2 36/1/2
f 32/2/2 33/2/2 38/2/2
f 34/2/2 35/2/2 39/2/2
f 29/2/2 30/2/2 43/2/2
f 30/1/2 36/1/2 44/1/2
f 43/2/2 30/2/2 44/2/2
f 36/2/2 37/2/2 45/2/2
f 44/1/2 36/1/2 45/1/2
f 37/1/2 38/1/2 46/1/2
f 45/2/2 37/2/2 46/2/2
f 33/1/2 34/1/2 47/1/2
f 38/2/2 33/2/2 47/2/2
f 34/2/2 39/2/2 48/2/2
f 47/1/2 34/1/2 48/1/2
f 39/1/2 40/1/2 49/1/2
f 48/2/2 39/2/2 49/2/2
f 40/2/2 41/2/2 50/2/2
f 49/1/2 40/1/2 50/1/2
f 41/1/2 42/1/2 51/1/2
f 50/2/2 41/2/2 51/2/2
f 51/1/2 42/1/2 52/1/2
f 46/1/2 38/1/2 53/1/2
f 38/2/2 47/2/2 54/2/2
f 53/1/2 38/1/2 54/1/2
f 54/2/2 47/2/2 55/2/2
f 55/2/2 47/2/2 56/2/2
f 59/2/3 58/2/3 57/2/3
f 60/2/3 58/2/3 59/2/3
f 63/1/3 62/1/3 61/1/3
f 64/1/3 62/1/3 63/1/3
f 69/2/3 66/2/3 65/2/3
f 70/2/3 66/2/3 69/2/3
f 71/2/3 68/2/3 67/2/3
f 72/2/3 68/2/3 71/2/3
f 73/1/4 74/1/4 75/1/4
f 75/1/4 74/1/4 76/1/4
f 77/2/4 78/2/4 79/2/4
f 79/2/4 78/2/4 80/2/4
f 81/2/4 82/2/4 83/2/4
f 83/2/4 82/2/4 84/2/4
f 85/1/4 86/1/4 87/1/4
f 87/1/4 86/1/4 88/1/4
f 91/2/5 90/2/5 89/2/5
f 92/2/5 90/2/5 91/2/5
f 93/1/5 92/1/5 91/1/5
f 94/1/5 92/1/5 93/1/5
f 97/2/5 96/2/5 95/2/5
f 98/2/5 96/2/5 97/2/5
f 99/1/5 98/1/5 97/1/5
f 100/1/5 98/1/5 99/1/5
f 101/2/5 100/2/5 99/2/5
f 102/2/5 100/2/5 101/2/5
f 105/2/5 104/2/5 103/2/5
f 106/2/5 104/2/5 105/2/5
f 107/1/5 106/1/5 105/1/5
f 108/1/5 106/1/5 107/1/5
f 111/1/5 110/1/5 109/1/5
f 112/1/5 110/1/5 111/1/5
f 113/2/5 112/2/5 111/2/5
f 114/2/5 112/2/5 113/2/5
f 115/1/5 114/1/5 113/1/5
f 116/1/5 114/1/5 115/1/5
f 117/2/6 118/2/6 119/2/6
f 119/2/6 118/2/6 120/2/6
f 119/1/6 120/1/6 121/1/6
f 121/1/6 120/1/6 122/1/6
f 121/2/6 122/2/6 123/2/6
f 123/2/6 122/2/6 124/2/6
f 125/1/6 126/1/6 127/1/6
f 127/1/6 126/1/6 128/1/6
f 127/2/6 128/2/6 129/2/6
f 129/2/6 128/2/6 130/2/6
f 129/1/6 130/1/6 131/1/6
f 131/1/6 130/1/6 132/1/6
f 131/2/6 132/2/6 133/2/6
f 133/2/6 132/2/6 134/2/6
f 133/1/6 134/1/6 135/1/6
f 135/1/6 134/1/6 136/1/6
f 137/1/6 138/1/6 139/1/6
f 139/1/6 138/1/6 140/1/6
f 141/2/6 142/2/6 143/2/6
f 143/2/6 142/2/6 144/2/6
