# MagicaVoxel @ Ephtracy

# group
o funkypacket4

# material
mtllib tutorial-7-funkypacket4.mtl
usemtl palette

# normals
vn -1 0 0
vn 1 0 0
vn 0 0 1
vn 0 0 -1
vn 0 -1 0
vn 0 1 0

# texcoords
vt 0.888672 0.5
vt 0.916016 0.5

# verts
v 0.1 0 0.2
v 0.1 0 0.1
v 0.1 0 -0.1
v 0.1 0 -0.2
v 0.1 0.3 0.1
v 0.1 0.3 -0.1
v 0.1 0.8 0.2
v 0.1 0.8 -0.2
v 0.4 0 0.2
v 0.4 0 0.1
v 0.4 0 -0.1
v 0.4 0 -0.2
v 0.4 0.3 0.2
v 0.4 0.3 0.1
v 0.4 0.3 -0.1
v 0.4 0.3 -0.2
v 0.2 0 0.2
v 0.2 0 0.1
v 0.2 0 -0.1
v 0.2 0 -0.2
v 0.2 0.3 0.2
v 0.2 0.3 0.1
v 0.2 0.3 -0.1
v 0.2 0.3 -0.2
v 0.2 0.4 0.2
v 0.2 0.4 -0.2
v 0.2 0.8 0.2
v 0.2 0.8 -0.2
v 0.5 0 0.2
v 0.5 0 0.1
v 0.5 0 -0.1
v 0.5 0 -0.2
v 0.5 0.3 0.1
v 0.5 0.3 -0.1
v 0.5 0.4 0.2
v 0.5 0.4 -0.2
v 0.1 0 0.2
v 0.1 0.8 0.2
v 0.2 0 0.2
v 0.2 0.3 0.2
v 0.2 0.4 0.2
v 0.2 0.8 0.2
v 0.3 0.3 0.2
v 0.3 0.4 0.2
v 0.4 0 0.2
v 0.4 0.3 0.2
v 0.4 0.4 0.2
v 0.5 0 0.2
v 0.5 0.4 0.2
v 0.1 0 -0.1
v 0.1 0.3 -0.1
v 0.2 0 -0.1
v 0.2 0.3 -0.1
v 0.4 0 -0.1
v 0.4 0.3 -0.1
v 0.5 0 -0.1
v 0.5 0.3 -0.1
v 0.1 0 0.1
v 0.1 0.3 0.1
v 0.2 0 0.1
v 0.2 0.3 0.1
v 0.4 0 0.1
v 0.4 0.3 0.1
v 0.5 0 0.1
v 0.5 0.3 0.1
v 0.1 0 -0.2
v 0.1 0.8 -0.2
v 0.2 0 -0.2
v 0.2 0.3 -0.2
v 0.2 0.4 -0.2
v 0.2 0.8 -0.2
v 0.3 0.3 -0.2
v 0.3 0.4 -0.2
v 0.4 0 -0.2
v 0.4 0.3 -0.2
v 0.4 0.4 -0.2
v 0.5 0 -0.2
v 0.5 0.4 -0.2
v 0.1 0 0.2
v 0.2 0 0.2
v 0.4 0 0.2
v 0.5 0 0.2
v 0.1 0 0.1
v 0.2 0 0.1
v 0.4 0 0.1
v 0.5 0 0.1
v 0.1 0 -0.1
v 0.2 0 -0.1
v 0.4 0 -0.1
v 0.5 0 -0.1
v 0.1 0 -0.2
v 0.2 0 -0.2
v 0.4 0 -0.2
v 0.5 0 -0.2
v 0.2 0.3 0.2
v 0.3 0.3 0.2
v 0.4 0.3 0.2
v 0.1 0.3 0.1
v 0.2 0.3 0.1
v 0.4 0.3 0.1
v 0.5 0.3 0.1
v 0.1 0.3 -0.1
v 0.2 0.3 -0.1
v 0.4 0.3 -0.1
v 0.5 0.3 -0.1
v 0.2 0.3 -0.2
v 0.3 0.3 -0.2
v 0.4 0.3 -0.2
v 0.2 0.4 0.2
v 0.3 0.4 0.2
v 0.4 0.4 0.2
v 0.5 0.4 0.2
v 0.2 0.4 -0.2
v 0.3 0.4 -0.2
v 0.4 0.4 -0.2
v 0.5 0.4 -0.2
v 0.1 0.8 0.2
v 0.2 0.8 0.2
v 0.1 0.8 -0.2
v 0.2 0.8 -0.2

# faces
f 5/2/1 2/2/1 1/2/1
f 6/2/1 4/2/1 3/2/1
f 7/2/1 5/2/1 1/2/1
f 7/2/1 6/2/1 5/2/1
f 8/2/1 4/2/1 6/2/1
f 8/2/1 6/2/1 7/2/1
f 13/1/1 10/1/1 9/1/1
f 14/1/1 10/1/1 13/1/1
f 15/1/1 12/1/1 11/1/1
f 16/1/1 12/1/1 15/1/1
f 17/2/2 18/2/2 21/2/2
f 21/2/2 18/2/2 22/2/2
f 19/2/2 20/2/2 23/2/2
f 23/2/2 20/2/2 24/2/2
f 25/2/2 26/2/2 27/2/2
f 27/2/2 26/2/2 28/2/2
f 29/1/2 30/1/2 33/1/2
f 31/1/2 32/1/2 34/1/2
f 29/1/2 33/1/2 35/1/2
f 33/1/2 34/1/2 35/1/2
f 34/1/2 32/1/2 36/1/2
f 35/1/2 34/1/2 36/1/2
f 39/2/3 38/2/3 37/2/3
f 40/2/3 38/2/3 39/2/3
f 41/2/3 38/2/3 40/2/3
f 42/2/3 38/2/3 41/2/3
f 43/1/3 41/1/3 40/1/3
f 44/1/3 41/1/3 43/1/3
f 46/2/3 44/2/3 43/2/3
f 47/2/3 44/2/3 46/2/3
f 48/1/3 46/1/3 45/1/3
f 48/1/3 47/1/3 46/1/3
f 49/1/3 47/1/3 48/1/3
f 52/2/3 51/2/3 50/2/3
f 53/2/3 51/2/3 52/2/3
f 56/1/3 55/1/3 54/1/3
f 57/1/3 55/1/3 56/1/3
f 58/2/4 59/2/4 60/2/4
f 60/2/4 59/2/4 61/2/4
f 62/1/4 63/1/4 64/1/4
f 64/1/4 63/1/4 65/1/4
f 66/2/4 67/2/4 68/2/4
f 68/2/4 67/2/4 69/2/4
f 69/2/4 67/2/4 70/2/4
f 70/2/4 67/2/4 71/2/4
f 69/1/4 70/1/4 72/1/4
f 72/1/4 70/1/4 73/1/4
f 72/2/4 73/2/4 75/2/4
f 75/2/4 73/2/4 76/2/4
f 74/1/4 75/1/4 77/1/4
f 75/1/4 76/1/4 77/1/4
f 77/1/4 76/1/4 78/1/4
f 83/2/5 80/2/5 79/2/5
f 84/2/5 80/2/5 83/2/5
f 85/1/5 82/1/5 81/1/5
f 86/1/5 82/1/5 85/1/5
f 91/2/5 88/2/5 87/2/5
f 92/2/5 88/2/5 91/2/5
f 93/1/5 90/1/5 89/1/5
f 94/1/5 90/1/5 93/1/5
f 99/1/5 96/1/5 95/1/5
f 100/2/5 97/2/5 96/2/5
f 102/2/5 99/2/5 98/2/5
f 103/1/5 96/1/5 99/1/5
f 103/2/5 99/2/5 102/2/5
f 104/1/5 101/1/5 100/1/5
f 104/2/5 100/2/5 96/2/5
f 105/1/5 101/1/5 104/1/5
f 106/1/5 96/1/5 103/1/5
f 107/2/5 104/2/5 96/2/5
f 107/1/5 96/1/5 106/1/5
f 108/2/5 104/2/5 107/2/5
f 109/1/6 110/1/6 113/1/6
f 110/2/6 111/2/6 114/2/6
f 113/1/6 110/1/6 114/1/6
f 111/1/6 112/1/6 115/1/6
f 114/2/6 111/2/6 115/2/6
f 115/1/6 112/1/6 116/1/6
f 117/2/6 118/2/6 119/2/6
f 119/2/6 118/2/6 120/2/6
