# MagicaVoxel @ Ephtracy

# group
o funkypacket

# material
mtllib tutorial-10-funkypacket.mtl
usemtl palette

# normals
vn -1 0 0
vn 1 0 0
vn 0 0 1
vn 0 0 -1
vn 0 -1 0
vn 0 1 0

# texcoords
vt 0.888672 0.5
vt 0.916016 0.5

# verts
v -0.2 0.4 0
v -0.2 0.4 -0.1
v -0.2 0.5 0
v -0.2 0.5 -0.1
v -0.1 0 0
v -0.1 0 -0.1
v -0.1 0.3 0
v -0.1 0.3 -0.1
v 0.1 0.3 0
v 0.1 0.3 -0.1
v 0.1 0.4 0
v 0.1 0.4 -0.1
v 0.2 0.5 0.1
v 0.2 0.5 -0.2
v 0.2 0.6 0.1
v 0.2 0.6 -0.2
v 0.3 0.4 0
v 0.3 0.4 -0.1
v 0.3 0.5 0
v 0.3 0.5 -0.1
v 0.6 0.5 0
v 0.6 0.5 -0.1
v 0.6 0.7 0.2
v 0.6 0.7 0
v 0.6 0.7 -0.1
v 0.6 0.7 -0.3
v 0.6 0.8 0.2
v 0.6 0.8 -0.3
v 0.7 0.3 0
v 0.7 0.3 -0.1
v 0.7 0.4 0
v 0.7 0.4 -0.1
v 0.8 0 0
v 0.8 0 -0.1
v 0.8 0.3 0
v 0.8 0.3 -0.1
v 0.1 0.4 0
v 0.1 0.4 -0.1
v 0.1 0.5 0
v 0.1 0.5 -0.1
v 0.2 0 0
v 0.2 0 -0.1
v 0.2 0.2 0
v 0.2 0.2 -0.1
v 0.3 0.2 0
v 0.3 0.2 -0.1
v 0.3 0.3 0
v 0.3 0.3 -0.1
v 0.4 0.3 0
v 0.4 0.3 -0.1
v 0.4 0.4 0
v 0.4 0.4 -0.1
v 0.4 0.5 0.1
v 0.4 0.5 0
v 0.4 0.5 -0.1
v 0.4 0.5 -0.2
v 0.4 0.6 0.1
v 0.4 0.6 0
v 0.4 0.6 -0.1
v 0.4 0.6 -0.2
v 0.5 0.5 0
v 0.5 0.5 -0.1
v 0.5 0.6 0
v 0.5 0.6 -0.1
v 0.7 0.5 0
v 0.7 0.5 -0.1
v 0.7 0.7 0.1
v 0.7 0.7 0
v 0.7 0.7 -0.1
v 0.7 0.7 -0.2
v 0.7 0.8 0.1
v 0.7 0.8 -0.2
v 0.8 0.4 0
v 0.8 0.4 -0.1
v 0.8 0.5 0
v 0.8 0.5 -0.1
v 0.9 0.3 0
v 0.9 0.3 -0.1
v 0.9 0.4 0
v 0.9 0.4 -0.1
v 0.9 0.7 0.2
v 0.9 0.7 0.1
v 0.9 0.7 -0.2
v 0.9 0.7 -0.3
v 0.9 0.8 0.2
v 0.9 0.8 0.1
v 0.9 0.8 -0.2
v 0.9 0.8 -0.3
v 1.1 0 0
v 1.1 0 -0.1
v 1.1 0.3 0
v 1.1 0.3 -0.1
v 0.6 0.7 0.2
v 0.6 0.8 0.2
v 0.7 0.7 0.2
v 0.7 0.8 0.2
v 0.8 0.7 0.2
v 0.8 0.8 0.2
v 0.9 0.7 0.2
v 0.9 0.8 0.2
v 0.2 0.5 0.1
v 0.2 0.6 0.1
v 0.3 0.5 0.1
v 0.3 0.6 0.1
v 0.4 0.5 0.1
v 0.4 0.6 0.1
v -0.2 0.4 0
v -0.2 0.5 0
v -0.1 0 0
v -0.1 0.3 0
v -0.1 0.4 0
v -0.1 0.5 0
v 0 0 0
v 0 0.3 0
v 0 0.4 0
v 0 0.5 0
v 0.1 0 0
v 0.1 0.3 0
v 0.1 0.4 0
v 0.1 0.5 0
v 0.2 0 0
v 0.2 0.2 0
v 0.2 0.4 0
v 0.3 0.2 0
v 0.3 0.3 0
v 0.3 0.4 0
v 0.3 0.5 0
v 0.4 0.3 0
v 0.4 0.4 0
v 0.4 0.5 0
v 0.4 0.6 0
v 0.5 0.4 0
v 0.5 0.5 0
v 0.5 0.6 0
v 0.6 0.4 0
v 0.6 0.5 0
v 0.6 0.7 0
v 0.7 0.3 0
v 0.7 0.4 0
v 0.7 0.5 0
v 0.7 0.7 0
v 0.8 0 0
v 0.8 0.3 0
v 0.8 0.4 0
v 0.8 0.5 0
v 0.9 0 0
v 0.9 0.3 0
v 0.9 0.4 0
v 1 0 0
v 1 0.3 0
v 1.1 0 0
v 1.1 0.3 0
v 0.7 0.7 -0.2
v 0.7 0.8 -0.2
v 0.8 0.7 -0.2
v 0.8 0.8 -0.2
v 0.9 0.7 -0.2
v 0.9 0.8 -0.2
v 0.7 0.7 0.1
v 0.7 0.8 0.1
v 0.8 0.7 0.1
v 0.8 0.8 0.1
v 0.9 0.7 0.1
v 0.9 0.8 0.1
v -0.2 0.4 -0.1
v -0.2 0.5 -0.1
v -0.1 0 -0.1
v -0.1 0.3 -0.1
v -0.1 0.4 -0.1
v -0.1 0.5 -0.1
v 0 0 -0.1
v 0 0.3 -0.1
v 0 0.4 -0.1
v 0 0.5 -0.1
v 0.1 0 -0.1
v 0.1 0.3 -0.1
v 0.1 0.4 -0.1
v 0.1 0.5 -0.1
v 0.2 0 -0.1
v 0.2 0.2 -0.1
v 0.2 0.4 -0.1
v 0.3 0.2 -0.1
v 0.3 0.3 -0.1
v 0.3 0.4 -0.1
v 0.3 0.5 -0.1
v 0.4 0.3 -0.1
v 0.4 0.4 -0.1
v 0.4 0.5 -0.1
v 0.4 0.6 -0.1
v 0.5 0.4 -0.1
v 0.5 0.5 -0.1
v 0.5 0.6 -0.1
v 0.6 0.4 -0.1
v 0.6 0.5 -0.1
v 0.6 0.7 -0.1
v 0.7 0.3 -0.1
v 0.7 0.4 -0.1
v 0.7 0.5 -0.1
v 0.7 0.7 -0.1
v 0.8 0 -0.1
v 0.8 0.3 -0.1
v 0.8 0.4 -0.1
v 0.8 0.5 -0.1
v 0.9 0 -0.1
v 0.9 0.3 -0.1
v 0.9 0.4 -0.1
v 1 0 -0.1
v 1 0.3 -0.1
v 1.1 0 -0.1
v 1.1 0.3 -0.1
v 0.2 0.5 -0.2
v 0.2 0.6 -0.2
v 0.3 0.5 -0.2
v 0.3 0.6 -0.2
v 0.4 0.5 -0.2
v 0.4 0.6 -0.2
v 0.6 0.7 -0.3
v 0.6 0.8 -0.3
v 0.7 0.7 -0.3
v 0.7 0.8 -0.3
v 0.8 0.7 -0.3
v 0.8 0.8 -0.3
v 0.9 0.7 -0.3
v 0.9 0.8 -0.3
v -0.1 0 0
v 0 0 0
v 0.1 0 0
v 0.2 0 0
v 0.8 0 0
v 0.9 0 0
v 1 0 0
v 1.1 0 0
v -0.1 0 -0.1
v 0 0 -0.1
v 0.1 0 -0.1
v 0.2 0 -0.1
v 0.8 0 -0.1
v 0.9 0 -0.1
v 1 0 -0.1
v 1.1 0 -0.1
v 0.2 0.2 0
v 0.3 0.2 0
v 0.2 0.2 -0.1
v 0.3 0.2 -0.1
v 0.3 0.3 0
v 0.4 0.3 0
v 0.7 0.3 0
v 0.8 0.3 0
v 0.3 0.3 -0.1
v 0.4 0.3 -0.1
v 0.7 0.3 -0.1
v 0.8 0.3 -0.1
v -0.2 0.4 0
v -0.1 0.4 0
v 0 0.4 0
v 0.1 0.4 0
v 0.4 0.4 0
v 0.5 0.4 0
v 0.6 0.4 0
v 0.7 0.4 0
v -0.2 0.4 -0.1
v -0.1 0.4 -0.1
v 0 0.4 -0.1
v 0.1 0.4 -0.1
v 0.4 0.4 -0.1
v 0.5 0.4 -0.1
v 0.6 0.4 -0.1
v 0.7 0.4 -0.1
v 0.2 0.5 0.1
v 0.3 0.5 0.1
v 0.4 0.5 0.1
v 0.3 0.5 0
v 0.4 0.5 0
v 0.3 0.5 -0.1
v 0.4 0.5 -0.1
v 0.2 0.5 -0.2
v 0.3 0.5 -0.2
v 0.4 0.5 -0.2
v 0.6 0.7 0.2
v 0.7 0.7 0.2
v 0.8 0.7 0.2
v 0.9 0.7 0.2
v 0.7 0.7 0.1
v 0.8 0.7 0.1
v 0.9 0.7 0.1
v 0.6 0.7 0
v 0.7 0.7 0
v 0.6 0.7 -0.1
v 0.7 0.7 -0.1
v 0.7 0.7 -0.2
v 0.8 0.7 -0.2
v 0.9 0.7 -0.2
v 0.6 0.7 -0.3
v 0.7 0.7 -0.3
v 0.8 0.7 -0.3
v 0.9 0.7 -0.3
v -0.1 0.3 0
v 0 0.3 0
v 0.1 0.3 0
v 0.9 0.3 0
v 1 0.3 0
v 1.1 0.3 0
v -0.1 0.3 -0.1
v 0 0.3 -0.1
v 0.1 0.3 -0.1
v 0.9 0.3 -0.1
v 1 0.3 -0.1
v 1.1 0.3 -0.1
v 0.1 0.4 0
v 0.2 0.4 0
v 0.3 0.4 0
v 0.8 0.4 0
v 0.9 0.4 0
v 0.1 0.4 -0.1
v 0.2 0.4 -0.1
v 0.3 0.4 -0.1
v 0.8 0.4 -0.1
v 0.9 0.4 -0.1
v -0.2 0.5 0
v -0.1 0.5 0
v 0 0.5 0
v 0.1 0.5 0
v 0.5 0.5 0
v 0.6 0.5 0
v 0.7 0.5 0
v 0.8 0.5 0
v -0.2 0.5 -0.1
v -0.1 0.5 -0.1
v 0 0.5 -0.1
v 0.1 0.5 -0.1
v 0.5 0.5 -0.1
v 0.6 0.5 -0.1
v 0.7 0.5 -0.1
v 0.8 0.5 -0.1
v 0.2 0.6 0.1
v 0.3 0.6 0.1
v 0.4 0.6 0.1
v 0.4 0.6 0
v 0.5 0.6 0
v 0.4 0.6 -0.1
v 0.5 0.6 -0.1
v 0.2 0.6 -0.2
v 0.3 0.6 -0.2
v 0.4 0.6 -0.2
v 0.6 0.8 0.2
v 0.7 0.8 0.2
v 0.8 0.8 0.2
v 0.9 0.8 0.2
v 0.7 0.8 0.1
v 0.8 0.8 0.1
v 0.9 0.8 0.1
v 0.7 0.8 -0.2
v 0.8 0.8 -0.2
v 0.9 0.8 -0.2
v 0.6 0.8 -0.3
v 0.7 0.8 -0.3
v 0.8 0.8 -0.3
v 0.9 0.8 -0.3

# faces
f 3/2/1 2/2/1 1/2/1
f 4/2/1 2/2/1 3/2/1
f 7/1/1 6/1/1 5/1/1
f 8/1/1 6/1/1 7/1/1
f 11/1/1 10/1/1 9/1/1
f 12/1/1 10/1/1 11/1/1
f 15/2/1 14/2/1 13/2/1
f 16/2/1 14/2/1 15/2/1
f 19/1/1 18/1/1 17/1/1
f 20/1/1 18/1/1 19/1/1
f 24/2/1 22/2/1 21/2/1
f 25/2/1 22/2/1 24/2/1
f 27/2/1 24/2/1 23/2/1
f 27/2/1 26/2/1 25/2/1
f 27/2/1 25/2/1 24/2/1
f 28/2/1 26/2/1 27/2/1
f 31/1/1 30/1/1 29/1/1
f 32/1/1 30/1/1 31/1/1
f 35/2/1 34/2/1 33/2/1
f 36/2/1 34/2/1 35/2/1
f 37/2/2 38/2/2 39/2/2
f 39/2/2 38/2/2 40/2/2
f 41/1/2 42/1/2 43/1/2
f 43/1/2 42/1/2 44/1/2
f 45/2/2 46/2/2 47/2/2
f 47/2/2 46/2/2 48/2/2
f 49/1/2 50/1/2 51/1/2
f 51/1/2 50/1/2 52/1/2
f 53/1/2 54/1/2 57/1/2
f 57/1/2 54/1/2 58/1/2
f 55/1/2 56/1/2 59/1/2
f 59/1/2 56/1/2 60/1/2
f 61/2/2 62/2/2 63/2/2
f 63/2/2 62/2/2 64/2/2
f 65/2/2 66/2/2 68/2/2
f 68/2/2 66/2/2 69/2/2
f 67/2/2 68/2/2 71/2/2
f 69/2/2 70/2/2 71/2/2
f 68/2/2 69/2/2 71/2/2
f 71/2/2 70/2/2 72/2/2
f 73/1/2 74/1/2 75/1/2
f 75/1/2 74/1/2 76/1/2
f 77/2/2 78/2/2 79/2/2
f 79/2/2 78/2/2 80/2/2
f 81/2/2 82/2/2 85/2/2
f 85/2/2 82/2/2 86/2/2
f 83/2/2 84/2/2 87/2/2
f 87/2/2 84/2/2 88/2/2
f 89/2/2 90/2/2 91/2/2
f 91/2/2 90/2/2 92/2/2
f 95/2/3 94/2/3 93/2/3
f 96/2/3 94/2/3 95/2/3
f 97/1/3 96/1/3 95/1/3
f 98/1/3 96/1/3 97/1/3
f 99/2/3 98/2/3 97/2/3
f 100/2/3 98/2/3 99/2/3
f 103/2/3 102/2/3 101/2/3
f 104/2/3 102/2/3 103/2/3
f 105/1/3 104/1/3 103/1/3
f 106/1/3 104/1/3 105/1/3
f 111/2/3 108/2/3 107/2/3
f 112/2/3 108/2/3 111/2/3
f 113/1/3 110/1/3 109/1/3
f 114/1/3 110/1/3 113/1/3
f 115/1/3 112/1/3 111/1/3
f 116/1/3 112/1/3 115/1/3
f 117/2/3 114/2/3 113/2/3
f 118/2/3 114/2/3 117/2/3
f 119/2/3 116/2/3 115/2/3
f 120/2/3 116/2/3 119/2/3
f 121/1/3 118/1/3 117/1/3
f 121/1/3 119/1/3 118/1/3
f 122/1/3 119/1/3 121/1/3
f 123/1/3 119/1/3 122/1/3
f 124/2/3 123/2/3 122/2/3
f 125/2/3 123/2/3 124/2/3
f 126/2/3 123/2/3 125/2/3
f 128/1/3 126/1/3 125/1/3
f 128/1/3 127/1/3 126/1/3
f 129/1/3 127/1/3 128/1/3
f 130/1/3 127/1/3 129/1/3
f 132/2/3 130/2/3 129/2/3
f 132/2/3 131/2/3 130/2/3
f 133/2/3 131/2/3 132/2/3
f 134/2/3 131/2/3 133/2/3
f 135/1/3 133/1/3 132/1/3
f 136/1/3 133/1/3 135/1/3
f 139/2/3 136/2/3 135/2/3
f 139/2/3 137/2/3 136/2/3
f 140/2/3 137/2/3 139/2/3
f 141/2/3 137/2/3 140/2/3
f 143/1/3 139/1/3 138/1/3
f 143/1/3 140/1/3 139/1/3
f 144/1/3 140/1/3 143/1/3
f 145/1/3 140/1/3 144/1/3
f 146/2/3 143/2/3 142/2/3
f 146/2/3 144/2/3 143/2/3
f 147/2/3 144/2/3 146/2/3
f 148/2/3 144/2/3 147/2/3
f 149/1/3 147/1/3 146/1/3
f 150/1/3 147/1/3 149/1/3
f 151/2/3 150/2/3 149/2/3
f 152/2/3 150/2/3 151/2/3
f 155/1/3 154/1/3 153/1/3
f 156/1/3 154/1/3 155/1/3
f 157/2/3 156/2/3 155/2/3
f 158/2/3 156/2/3 157/2/3
f 159/1/4 160/1/4 161/1/4
f 161/1/4 160/1/4 162/1/4
f 161/2/4 162/2/4 163/2/4
f 163/2/4 162/2/4 164/2/4
f 165/2/4 166/2/4 169/2/4
f 169/2/4 166/2/4 170/2/4
f 167/1/4 168/1/4 171/1/4
f 171/1/4 168/1/4 172/1/4
f 169/1/4 170/1/4 173/1/4
f 173/1/4 170/1/4 174/1/4
f 171/2/4 172/2/4 175/2/4
f 175/2/4 172/2/4 176/2/4
f 173/2/4 174/2/4 177/2/4
f 177/2/4 174/2/4 178/2/4
f 175/1/4 176/1/4 179/1/4
f 176/1/4 177/1/4 179/1/4
f 179/1/4 177/1/4 180/1/4
f 180/1/4 177/1/4 181/1/4
f 180/2/4 181/2/4 182/2/4
f 182/2/4 181/2/4 183/2/4
f 183/2/4 181/2/4 184/2/4
f 183/1/4 184/1/4 186/1/4
f 184/1/4 185/1/4 186/1/4
f 186/1/4 185/1/4 187/1/4
f 187/1/4 185/1/4 188/1/4
f 187/2/4 188/2/4 190/2/4
f 188/2/4 189/2/4 190/2/4
f 190/2/4 189/2/4 191/2/4
f 191/2/4 189/2/4 192/2/4
f 190/1/4 191/1/4 193/1/4
f 193/1/4 191/1/4 194/1/4
f 193/2/4 194/2/4 197/2/4
f 194/2/4 195/2/4 197/2/4
f 197/2/4 195/2/4 198/2/4
f 198/2/4 195/2/4 199/2/4
f 196/1/4 197/1/4 201/1/4
f 197/1/4 198/1/4 201/1/4
f 201/1/4 198/1/4 202/1/4
f 202/1/4 198/1/4 203/1/4
f 200/2/4 201/2/4 204/2/4
f 201/2/4 202/2/4 204/2/4
f 204/2/4 202/2/4 205/2/4
f 205/2/4 202/2/4 206/2/4
f 204/1/4 205/1/4 207/1/4
f 207/1/4 205/1/4 208/1/4
f 207/2/4 208/2/4 209/2/4
f 209/2/4 208/2/4 210/2/4
f 211/2/4 212/2/4 213/2/4
f 213/2/4 212/2/4 214/2/4
f 213/1/4 214/1/4 215/1/4
f 215/1/4 214/1/4 216/1/4
f 217/2/4 218/2/4 219/2/4
f 219/2/4 218/2/4 220/2/4
f 219/1/4 220/1/4 221/1/4
f 221/1/4 220/1/4 222/1/4
f 221/2/4 222/2/4 223/2/4
f 223/2/4 222/2/4 224/2/4
f 233/1/5 226/1/5 225/1/5
f 234/2/5 227/2/5 226/2/5
f 234/1/5 226/1/5 233/1/5
f 235/1/5 228/1/5 227/1/5
f 235/2/5 227/2/5 234/2/5
f 236/1/5 228/1/5 235/1/5
f 237/2/5 230/2/5 229/2/5
f 238/1/5 231/1/5 230/1/5
f 238/2/5 230/2/5 237/2/5
f 239/2/5 232/2/5 231/2/5
f 239/1/5 231/1/5 238/1/5
f 240/2/5 232/2/5 239/2/5
f 243/2/5 242/2/5 241/2/5
f 244/2/5 242/2/5 243/2/5
f 249/1/5 246/1/5 245/1/5
f 250/1/5 246/1/5 249/1/5
f 251/1/5 248/1/5 247/1/5
f 252/1/5 248/1/5 251/1/5
f 261/2/5 254/2/5 253/2/5
f 262/1/5 255/1/5 254/1/5
f 262/2/5 254/2/5 261/2/5
f 263/2/5 256/2/5 255/2/5
f 263/1/5 255/1/5 262/1/5
f 264/2/5 256/2/5 263/2/5
f 265/2/5 258/2/5 257/2/5
f 266/1/5 259/1/5 258/1/5
f 266/2/5 258/2/5 265/2/5
f 267/2/5 260/2/5 259/2/5
f 267/1/5 259/1/5 266/1/5
f 268/2/5 260/2/5 267/2/5
f 272/2/5 270/2/5 269/2/5
f 272/1/5 271/1/5 270/1/5
f 273/1/5 271/1/5 272/1/5
f 274/2/5 272/2/5 269/2/5
f 276/2/5 274/2/5 269/2/5
f 277/1/5 275/1/5 274/1/5
f 277/2/5 274/2/5 276/2/5
f 278/1/5 275/1/5 277/1/5
f 283/2/5 280/2/5 279/2/5
f 283/1/5 281/1/5 280/1/5
f 284/2/5 282/2/5 281/2/5
f 284/1/5 281/1/5 283/1/5
f 285/2/5 282/2/5 284/2/5
f 286/2/5 283/2/5 279/2/5
f 287/2/5 283/2/5 286/2/5
f 290/2/5 289/2/5 288/2/5
f 293/2/5 290/2/5 288/2/5
f 294/1/5 291/1/5 290/1/5
f 294/2/5 290/2/5 293/2/5
f 295/2/5 292/2/5 291/2/5
f 295/1/5 291/1/5 294/1/5
f 296/2/5 292/2/5 295/2/5
f 297/1/6 298/1/6 303/1/6
f 298/2/6 299/2/6 304/2/6
f 303/1/6 298/1/6 304/1/6
f 304/2/6 299/2/6 305/2/6
f 300/1/6 301/1/6 306/1/6
f 301/2/6 302/2/6 307/2/6
f 306/1/6 301/1/6 307/1/6
f 307/2/6 302/2/6 308/2/6
f 309/1/6 310/1/6 314/1/6
f 310/2/6 311/2/6 315/2/6
f 314/1/6 310/1/6 315/1/6
f 315/2/6 311/2/6 316/2/6
f 312/2/6 313/2/6 317/2/6
f 317/2/6 313/2/6 318/2/6
f 319/2/6 320/2/6 327/2/6
f 320/1/6 321/1/6 328/1/6
f 327/2/6 320/2/6 328/2/6
f 321/2/6 322/2/6 329/2/6
f 328/1/6 321/1/6 329/1/6
f 329/2/6 322/2/6 330/2/6
f 323/1/6 324/1/6 331/1/6
f 331/1/6 324/1/6 332/1/6
f 325/1/6 326/1/6 333/1/6
f 333/1/6 326/1/6 334/1/6
f 336/1/6 337/1/6 338/1/6
f 336/1/6 338/1/6 340/1/6
f 338/2/6 339/2/6 340/2/6
f 340/2/6 339/2/6 341/2/6
f 335/2/6 336/2/6 342/2/6
f 336/1/6 340/1/6 343/1/6
f 342/2/6 336/2/6 343/2/6
f 343/1/6 340/1/6 344/1/6
f 345/2/6 346/2/6 349/2/6
f 346/1/6 347/1/6 349/1/6
f 347/2/6 348/2/6 350/2/6
f 349/1/6 347/1/6 350/1/6
f 350/2/6 348/2/6 351/2/6
f 345/2/6 349/2/6 352/2/6
f 345/2/6 352/2/6 355/2/6
f 352/1/6 353/1/6 356/1/6
f 355/2/6 352/2/6 356/2/6
f 353/2/6 354/2/6 357/2/6
f 356/1/6 353/1/6 357/1/6
f 357/2/6 354/2/6 358/2/6
