# MagicaVoxel @ Ephtracy

# group
o treeapple

# material
mtllib stage1-17-treeapple.mtl
usemtl palette

# normals
vn -1 0 0
vn 1 0 0
vn 0 0 1
vn 0 0 -1
vn 0 -1 0
vn 0 1 0

# texcoords
vt 0.697266 0.5
vt 0.744141 0.5
vt 0.771484 0.5

# verts
v -1.6 3.9 0.6
v -1.6 3.9 0.4
v -1.6 3.9 -0.4
v -1.6 3.9 -0.6
v -1.6 4.2 0.6
v -1.6 4.2 0.4
v -1.6 4.2 -0.4
v -1.6 4.2 -0.6
v -1.6 5.2 0
v -1.6 5.2 -0.2
v -1.6 5.4 0
v -1.6 5.4 -0.2
v -1.5 2.8 1.5
v -1.5 2.8 0.2
v -1.5 2.8 -0.4
v -1.5 2.8 -1.5
v -1.5 3.2 1.1
v -1.5 3.2 0.6
v -1.5 3.3 0.2
v -1.5 3.3 -0.4
v -1.5 3.4 -0.7
v -1.5 3.4 -1.1
v -1.5 3.6 1.1
v -1.5 3.6 0.6
v -1.5 3.9 0.6
v -1.5 3.9 0.4
v -1.5 3.9 -0.4
v -1.5 3.9 -0.6
v -1.5 3.9 -0.7
v -1.5 3.9 -1.1
v -1.5 4.2 0.9
v -1.5 4.2 0.6
v -1.5 4.2 0.4
v -1.5 4.2 -0.4
v -1.5 4.2 -0.6
v -1.5 4.4 -0.3
v -1.5 4.4 -1.5
v -1.5 5.2 0
v -1.5 5.2 -0.2
v -1.5 5.4 0
v -1.5 5.4 -0.2
v -1.5 5.5 0.9
v -1.5 5.5 0.4
v -1.5 5.8 1.5
v -1.5 5.8 -0.3
v -1.4 3.6 -1.5
v -1.4 3.6 -1.6
v -1.4 3.8 -1.5
v -1.4 3.8 -1.6
v -1.4 5.2 1.6
v -1.4 5.2 1.5
v -1.4 5.5 1.6
v -1.4 5.5 1.5
v -1.2 3.2 1.1
v -1.2 3.2 0.6
v -1.2 3.6 1.1
v -1.2 3.6 0.6
v -1.1 3.4 -0.7
v -1.1 3.4 -1.1
v -1.1 3.9 -0.7
v -1.1 3.9 -1.1
v -1.1 4.2 0.9
v -1.1 4.2 0.4
v -1.1 5.5 0.9
v -1.1 5.5 0.4
v -0.9 3.4 1.6
v -0.9 3.4 1.5
v -0.9 3.7 1.6
v -0.9 3.7 1.5
v -0.8 2.8 0.2
v -0.8 2.8 -0.4
v -0.8 3.3 0.2
v -0.8 3.3 -0.4
v -0.6 3.2 -1
v -0.6 3.2 -1.5
v -0.6 3.6 -1
v -0.6 3.6 -1.5
v -0.6 4 -1.5
v -0.6 4 -1.7
v -0.6 4.1 1.5
v -0.6 4.1 1.1
v -0.6 4.2 -1.5
v -0.6 4.2 -1.7
v -0.6 4.6 1.5
v -0.6 4.6 1.1
v -0.3 4.4 -0.3
v -0.3 4.4 -1.5
v -0.3 5.8 -0.3
v -0.3 5.8 -1.5
v -0.1 4.1 1.6
v -0.1 4.1 1.5
v -0.1 4.5 1.6
v -0.1 4.5 1.5
v 0 0 0.1
v 0 0 -0.1
v 0 2.8 0.1
v 0 2.8 -0.1
v 0.2 5.1 1.5
v 0.2 5.1 1
v 0.2 5.8 1.5
v 0.2 5.8 1
v 0.3 3 -1.5
v 0.3 3 -1.6
v 0.3 3.3 -1.5
v 0.3 3.3 -1.6
v 0.5 3.4 1.5
v 0.5 3.4 0.8
v 0.5 3.7 1.5
v 0.5 3.7 0.8
v 0.6 3.9 -0.9
v 0.6 3.9 -1.5
v 0.6 5.4 -0.9
v 0.6 5.4 -1.5
v 0.8 4.2 1.6
v 0.8 4.2 1.5
v 0.8 4.5 1.6
v 0.8 4.5 1.5
v 1 5.1 -1.5
v 1 5.1 -1.6
v 1 5.4 -1.5
v 1 5.4 -1.6
v -1.2 3.6 -1.5
v -1.2 3.6 -1.6
v -1.2 3.8 -1.5
v -1.2 3.8 -1.6
v -1.1 4.1 1.5
v -1.1 4.1 1.1
v -1.1 4.6 1.5
v -1.1 4.6 1.1
v -1.1 5.2 1.6
v -1.1 5.2 1.5
v -1.1 5.5 1.6
v -1.1 5.5 1.5
v -1 3.2 -1
v -1 3.2 -1.5
v -1 3.6 -1
v -1 3.6 -1.5
v -0.5 3.4 1.6
v -0.5 3.4 1.5
v -0.5 3.7 1.6
v -0.5 3.7 1.5
v -0.4 2.8 1.5
v -0.4 2.8 0.8
v -0.4 3.7 1.5
v -0.4 3.7 0.8
v -0.4 4 -1.5
v -0.4 4 -1.7
v -0.4 4.2 -1.5
v -0.4 4.2 -1.7
v -0.4 5.1 1.5
v -0.4 5.1 1
v -0.4 5.8 1.5
v -0.4 5.8 1
v 0 3.9 -0.9
v 0 3.9 -1.5
v 0 5.4 -0.9
v 0 5.4 -1.5
v 0.2 0 0.1
v 0.2 0 -0.1
v 0.2 2.8 0.1
v 0.2 2.8 -0.1
v 0.2 4.1 1.6
v 0.2 4.1 1.5
v 0.2 4.5 1.6
v 0.2 4.5 1.5
v 0.6 3 -1.5
v 0.6 3 -1.6
v 0.6 3.3 -1.5
v 0.6 3.3 -1.6
v 0.9 2.8 -0.8
v 0.9 2.8 -1.5
v 0.9 3.7 -0.8
v 0.9 3.7 -1.5
v 1.1 3.6 0.6
v 1.1 3.6 0
v 1.1 4.2 1.6
v 1.1 4.2 1.5
v 1.1 4.2 0.6
v 1.1 4.2 0
v 1.1 4.5 1.6
v 1.1 4.5 1.5
v 1.2 4.6 1.5
v 1.2 4.6 -0.3
v 1.2 5.1 0.5
v 1.2 5.1 0.3
v 1.2 5.3 0.5
v 1.2 5.3 0.3
v 1.2 5.8 1.5
v 1.2 5.8 -0.3
v 1.3 5.1 0.5
v 1.3 5.1 0.3
v 1.3 5.1 -1.5
v 1.3 5.1 -1.6
v 1.3 5.3 0.5
v 1.3 5.3 0.3
v 1.3 5.4 -1.5
v 1.3 5.4 -1.6
v 1.5 2.8 0.8
v 1.5 2.8 -0.8
v 1.5 3 0.2
v 1.5 3 0
v 1.5 3.2 0.2
v 1.5 3.2 0
v 1.5 3.4 1.5
v 1.5 3.4 0.8
v 1.5 3.6 0.6
v 1.5 3.6 0
v 1.5 3.7 -0.8
v 1.5 3.7 -1.5
v 1.5 4.1 1.1
v 1.5 4.1 0.8
v 1.5 4.2 0.6
v 1.5 4.2 0
v 1.5 4.4 1.1
v 1.5 4.4 0.8
v 1.5 4.5 -0.9
v 1.5 4.5 -1.2
v 1.5 4.6 1.5
v 1.5 4.6 -0.3
v 1.5 4.9 -0.9
v 1.5 4.9 -1.2
v 1.5 5.8 -0.3
v 1.5 5.8 -1.5
v 1.6 3 0.2
v 1.6 3 0
v 1.6 3.2 0.2
v 1.6 3.2 0
v 1.6 4.1 1.1
v 1.6 4.1 0.8
v 1.6 4.4 1.1
v 1.6 4.4 0.8
v 1.6 4.5 -0.9
v 1.6 4.5 -1.2
v 1.6 4.9 -0.9
v 1.6 4.9 -1.2
v -1.4 5.2 1.6
v -1.4 5.5 1.6
v -1.1 5.2 1.6
v -1.1 5.5 1.6
v -0.9 3.4 1.6
v -0.9 3.7 1.6
v -0.5 3.4 1.6
v -0.5 3.7 1.6
v -0.1 4.1 1.6
v -0.1 4.5 1.6
v 0.2 4.1 1.6
v 0.2 4.5 1.6
v 0.8 4.2 1.6
v 0.8 4.5 1.6
v 1.1 4.2 1.6
v 1.1 4.5 1.6
v -1.5 2.8 1.5
v -1.5 5.8 1.5
v -1.4 5.2 1.5
v -1.4 5.5 1.5
v -1.1 4.1 1.5
v -1.1 4.6 1.5
v -1.1 5.2 1.5
v -1.1 5.5 1.5
v -0.9 3.4 1.5
v -0.9 3.7 1.5
v -0.6 4.1 1.5
v -0.6 4.6 1.5
v -0.5 3.4 1.5
v -0.5 3.7 1.5
v -0.4 2.8 1.5
v -0.4 3.7 1.5
v -0.4 5.1 1.5
v -0.4 5.8 1.5
v -0.1 4.1 1.5
v -0.1 4.5 1.5
v 0.2 4.1 1.5
v 0.2 4.5 1.5
v 0.2 5.1 1.5
v 0.2 5.8 1.5
v 0.5 3.4 1.5
v 0.5 3.7 1.5
v 0.8 4.2 1.5
v 0.8 4.5 1.5
v 1.1 4.2 1.5
v 1.1 4.5 1.5
v 1.2 4.6 1.5
v 1.2 5.8 1.5
v 1.5 3.4 1.5
v 1.5 4.6 1.5
v -1.1 4.1 1.1
v -1.1 4.6 1.1
v -0.6 4.1 1.1
v -0.6 4.6 1.1
v 1.5 4.1 1.1
v 1.5 4.4 1.1
v 1.6 4.1 1.1
v 1.6 4.4 1.1
v -0.4 5.1 1
v -0.4 5.8 1
v 0.2 5.1 1
v 0.2 5.8 1
v -0.4 2.8 0.8
v -0.4 3.7 0.8
v 0.5 3.4 0.8
v 0.5 3.7 0.8
v 1.5 2.8 0.8
v 1.5 3.4 0.8
v -1.6 3.9 0.6
v -1.6 4.2 0.6
v -1.5 3.2 0.6
v -1.5 3.6 0.6
v -1.5 3.9 0.6
v -1.5 4.2 0.6
v -1.2 3.2 0.6
v -1.2 3.6 0.6
v 1.2 5.1 0.5
v 1.2 5.3 0.5
v 1.3 5.1 0.5
v 1.3 5.3 0.5
v -1.5 4.2 0.4
v -1.5 5.5 0.4
v -1.1 4.2 0.4
v -1.1 5.5 0.4
v 1.5 3 0.2
v 1.5 3.2 0.2
v 1.6 3 0.2
v 1.6 3.2 0.2
v 0 0 0.1
v 0 2.8 0.1
v 0.2 0 0.1
v 0.2 2.8 0.1
v -1.6 5.2 0
v -1.6 5.4 0
v -1.5 5.2 0
v -1.5 5.4 0
v 1.1 3.6 0
v 1.1 4.2 0
v 1.5 3.6 0
v 1.5 4.2 0
v 1.2 4.6 -0.3
v 1.2 5.8 -0.3
v 1.5 4.6 -0.3
v 1.5 5.8 -0.3
v -1.6 3.9 -0.4
v -1.6 4.2 -0.4
v -1.5 2.8 -0.4
v -1.5 3.3 -0.4
v -1.5 3.9 -0.4
v -1.5 4.2 -0.4
v -0.8 2.8 -0.4
v -0.8 3.3 -0.4
v 1.5 4.5 -0.9
v 1.5 4.9 -0.9
v 1.6 4.5 -0.9
v 1.6 4.9 -0.9
v -1.5 3.4 -1.1
v -1.5 3.9 -1.1
v -1.1 3.4 -1.1
v -1.1 3.9 -1.1
v -1.5 3.2 1.1
v -1.5 3.6 1.1
v -1.2 3.2 1.1
v -1.2 3.6 1.1
v -1.5 4.2 0.9
v -1.5 5.5 0.9
v -1.1 4.2 0.9
v -1.1 5.5 0.9
v 1.5 4.1 0.8
v 1.5 4.4 0.8
v 1.6 4.1 0.8
v 1.6 4.4 0.8
v 1.1 3.6 0.6
v 1.1 4.2 0.6
v 1.5 3.6 0.6
v 1.5 4.2 0.6
v -1.6 3.9 0.4
v -1.6 4.2 0.4
v -1.5 3.9 0.4
v -1.5 4.2 0.4
v 1.2 5.1 0.3
v 1.2 5.3 0.3
v 1.3 5.1 0.3
v 1.3 5.3 0.3
v -1.5 2.8 0.2
v -1.5 3.3 0.2
v -0.8 2.8 0.2
v -0.8 3.3 0.2
v 1.5 3 0
v 1.5 3.2 0
v 1.6 3 0
v 1.6 3.2 0
v 0 0 -0.1
v 0 2.8 -0.1
v 0.2 0 -0.1
v 0.2 2.8 -0.1
v -1.6 5.2 -0.2
v -1.6 5.4 -0.2
v -1.5 5.2 -0.2
v -1.5 5.4 -0.2
v -1.5 4.4 -0.3
v -1.5 5.8 -0.3
v -0.3 4.4 -0.3
v -0.3 5.8 -0.3
v -1.6 3.9 -0.6
v -1.6 4.2 -0.6
v -1.5 3.9 -0.6
v -1.5 4.2 -0.6
v -1.5 3.4 -0.7
v -1.5 3.9 -0.7
v -1.1 3.4 -0.7
v -1.1 3.9 -0.7
v 0.9 2.8 -0.8
v 0.9 3.7 -0.8
v 1.5 2.8 -0.8
v 1.5 3.7 -0.8
v 0 3.9 -0.9
v 0 5.4 -0.9
v 0.6 3.9 -0.9
v 0.6 5.4 -0.9
v -1 3.2 -1
v -1 3.6 -1
v -0.6 3.2 -1
v -0.6 3.6 -1
v 1.5 4.5 -1.2
v 1.5 4.9 -1.2
v 1.6 4.5 -1.2
v 1.6 4.9 -1.2
v -1.5 2.8 -1.5
v -1.5 4.4 -1.5
v -1.4 3.6 -1.5
v -1.4 3.8 -1.5
v -1.2 3.6 -1.5
v -1.2 3.8 -1.5
v -1 3.2 -1.5
v -1 3.6 -1.5
v -0.6 3.2 -1.5
v -0.6 3.6 -1.5
v -0.6 4 -1.5
v -0.6 4.2 -1.5
v -0.4 4 -1.5
v -0.4 4.2 -1.5
v -0.3 4.4 -1.5
v -0.3 5.8 -1.5
v 0 3.9 -1.5
v 0 5.4 -1.5
v 0.3 3 -1.5
v 0.3 3.3 -1.5
v 0.6 3 -1.5
v 0.6 3.3 -1.5
v 0.6 3.9 -1.5
v 0.6 5.4 -1.5
v 0.9 2.8 -1.5
v 0.9 3.7 -1.5
v 1 5.1 -1.5
v 1 5.4 -1.5
v 1.3 5.1 -1.5
v 1.3 5.4 -1.5
v 1.5 3.7 -1.5
v 1.5 5.8 -1.5
v -1.4 3.6 -1.6
v -1.4 3.8 -1.6
v -1.2 3.6 -1.6
v -1.2 3.8 -1.6
v 0.3 3 -1.6
v 0.3 3.3 -1.6
v 0.6 3 -1.6
v 0.6 3.3 -1.6
v 1 5.1 -1.6
v 1 5.4 -1.6
v 1.3 5.1 -1.6
v 1.3 5.4 -1.6
v -0.6 4 -1.7
v -0.6 4.2 -1.7
v -0.4 4 -1.7
v -0.4 4.2 -1.7
v 0 0 0.1
v 0.2 0 0.1
v 0 0 -0.1
v 0.2 0 -0.1
v -1.5 2.8 1.5
v -0.4 2.8 1.5
v -0.4 2.8 0.8
v 1.5 2.8 0.8
v -1.5 2.8 0.2
v -0.8 2.8 0.2
v 0 2.8 0.1
v 0.2 2.8 0.1
v 0 2.8 -0.1
v 0.2 2.8 -0.1
v -1.5 2.8 -0.4
v -0.8 2.8 -0.4
v 0.9 2.8 -0.8
v 1.5 2.8 -0.8
v -1.5 2.8 -1.5
v 0.9 2.8 -1.5
v 1.5 3 0.2
v 1.6 3 0.2
v 1.5 3 0
v 1.6 3 0
v 0.3 3 -1.5
v 0.6 3 -1.5
v 0.3 3 -1.6
v 0.6 3 -1.6
v -1.5 3.3 0.2
v -0.8 3.3 0.2
v -1.5 3.3 -0.4
v -0.8 3.3 -0.4
v -0.9 3.4 1.6
v -0.5 3.4 1.6
v -0.9 3.4 1.5
v -0.5 3.4 1.5
v 0.5 3.4 1.5
v 1.5 3.4 1.5
v 0.5 3.4 0.8
v 1.5 3.4 0.8
v -1.5 3.6 1.1
v -1.2 3.6 1.1
v -1.5 3.6 0.6
v -1.2 3.6 0.6
v -1 3.6 -1
v -0.6 3.6 -1
v -1.4 3.6 -1.5
v -1.2 3.6 -1.5
v -1 3.6 -1.5
v -0.6 3.6 -1.5
v -1.4 3.6 -1.6
v -1.2 3.6 -1.6
v -0.4 3.7 1.5
v 0.5 3.7 1.5
v -0.4 3.7 0.8
v 0.5 3.7 0.8
v 0.9 3.7 -0.8
v 1.5 3.7 -0.8
v 0.9 3.7 -1.5
v 1.5 3.7 -1.5
v -1.6 3.9 0.6
v -1.5 3.9 0.6
v -1.6 3.9 0.4
v -1.5 3.9 0.4
v -1.6 3.9 -0.4
v -1.5 3.9 -0.4
v -1.6 3.9 -0.6
v -1.5 3.9 -0.6
v -1.5 3.9 -0.7
v -1.1 3.9 -0.7
v -1.5 3.9 -1.1
v -1.1 3.9 -1.1
v -0.6 4 -1.5
v -0.4 4 -1.5
v -0.6 4 -1.7
v -0.4 4 -1.7
v -0.1 4.1 1.6
v 0.2 4.1 1.6
v -0.1 4.1 1.5
v 0.2 4.1 1.5
v 1.5 4.1 1.1
v 1.6 4.1 1.1
v 1.5 4.1 0.8
v 1.6 4.1 0.8
v 0.8 4.2 1.6
v 1.1 4.2 1.6
v 0.8 4.2 1.5
v 1.1 4.2 1.5
v 1.1 4.2 0.6
v 1.5 4.2 0.6
v 1.1 4.2 0
v 1.5 4.2 0
v 1.5 4.5 -0.9
v 1.6 4.5 -0.9
v 1.5 4.5 -1.2
v 1.6 4.5 -1.2
v -1.1 4.6 1.5
v -0.6 4.6 1.5
v -1.1 4.6 1.1
v -0.6 4.6 1.1
v 1.2 5.1 0.5
v 1.3 5.1 0.5
v 1.2 5.1 0.3
v 1.3 5.1 0.3
v 1 5.1 -1.5
v 1.3 5.1 -1.5
v 1 5.1 -1.6
v 1.3 5.1 -1.6
v -1.4 5.2 1.6
v -1.1 5.2 1.6
v -1.4 5.2 1.5
v -1.1 5.2 1.5
v -1.6 5.2 0
v -1.5 5.2 0
v -1.6 5.2 -0.2
v -1.5 5.2 -0.2
v 0 5.4 -0.9
v 0.6 5.4 -0.9
v 0 5.4 -1.5
v 0.6 5.4 -1.5
v -1.5 5.5 0.9
v -1.1 5.5 0.9
v -1.5 5.5 0.4
v -1.1 5.5 0.4
v -1.5 3.2 1.1
v -1.2 3.2 1.1
v -1.5 3.2 0.6
v -1.2 3.2 0.6
v 1.5 3.2 0.2
v 1.6 3.2 0.2
v 1.5 3.2 0
v 1.6 3.2 0
v -1 3.2 -1
v -0.6 3.2 -1
v -1 3.2 -1.5
v -0.6 3.2 -1.5
v 0.3 3.3 -1.5
v 0.6 3.3 -1.5
v 0.3 3.3 -1.6
v 0.6 3.3 -1.6
v -1.5 3.4 -0.7
v -1.1 3.4 -0.7
v -1.5 3.4 -1.1
v -1.1 3.4 -1.1
v 1.1 3.6 0.6
v 1.5 3.6 0.6
v 1.1 3.6 0
v 1.5 3.6 0
v -0.9 3.7 1.6
v -0.5 3.7 1.6
v -0.9 3.7 1.5
v -0.5 3.7 1.5
v -1.4 3.8 -1.5
v -1.2 3.8 -1.5
v -1.4 3.8 -1.6
v -1.2 3.8 -1.6
v 0 3.9 -0.9
v 0.6 3.9 -0.9
v 0 3.9 -1.5
v 0.6 3.9 -1.5
v -1.1 4.1 1.5
v -0.6 4.1 1.5
v -1.1 4.1 1.1
v -0.6 4.1 1.1
v -1.5 4.2 0.9
v -1.1 4.2 0.9
v -1.6 4.2 0.6
v -1.5 4.2 0.6
v -1.6 4.2 0.4
v -1.5 4.2 0.4
v -1.1 4.2 0.4
v -1.6 4.2 -0.4
v -1.5 4.2 -0.4
v -1.6 4.2 -0.6
v -1.5 4.2 -0.6
v -0.6 4.2 -1.5
v -0.4 4.2 -1.5
v -0.6 4.2 -1.7
v -0.4 4.2 -1.7
v 1.5 4.4 1.1
v 1.6 4.4 1.1
v 1.5 4.4 0.8
v 1.6 4.4 0.8
v -1.5 4.4 -0.3
v -0.3 4.4 -0.3
v -1.5 4.4 -1.5
v -0.3 4.4 -1.5
v -0.1 4.5 1.6
v 0.2 4.5 1.6
v 0.8 4.5 1.6
v 1.1 4.5 1.6
v -0.1 4.5 1.5
v 0.2 4.5 1.5
v 0.8 4.5 1.5
v 1.1 4.5 1.5
v 1.2 4.6 1.5
v 1.5 4.6 1.5
v 1.2 4.6 -0.3
v 1.5 4.6 -0.3
v 1.5 4.9 -0.9
v 1.6 4.9 -0.9
v 1.5 4.9 -1.2
v 1.6 4.9 -1.2
v -0.4 5.1 1.5
v 0.2 5.1 1.5
v -0.4 5.1 1
v 0.2 5.1 1
v 1.2 5.3 0.5
v 1.3 5.3 0.5
v 1.2 5.3 0.3
v 1.3 5.3 0.3
v -1.6 5.4 0
v -1.5 5.4 0
v -1.6 5.4 -0.2
v -1.5 5.4 -0.2
v 1 5.4 -1.5
v 1.3 5.4 -1.5
v 1 5.4 -1.6
v 1.3 5.4 -1.6
v -1.4 5.5 1.6
v -1.1 5.5 1.6
v -1.4 5.5 1.5
v -1.1 5.5 1.5
v -1.5 5.8 1.5
v -0.4 5.8 1.5
v 0.2 5.8 1.5
v 1.2 5.8 1.5
v -0.4 5.8 1
v 0.2 5.8 1
v -1.5 5.8 -0.3
v -0.3 5.8 -0.3
v 1.2 5.8 -0.3
v 1.5 5.8 -0.3
v -0.3 5.8 -1.5
v 1.5 5.8 -1.5

# faces
f 5/1/1 2/1/1 1/1/1
f 6/1/1 2/1/1 5/1/1
f 7/1/1 4/1/1 3/1/1
f 8/1/1 4/1/1 7/1/1
f 11/1/1 10/1/1 9/1/1
f 12/1/1 10/1/1 11/1/1
f 17/2/1 14/2/1 13/2/1
f 18/2/1 14/2/1 17/2/1
f 19/2/1 14/2/1 18/2/1
f 20/2/1 16/2/1 15/2/1
f 21/2/1 16/2/1 20/2/1
f 21/2/1 20/2/1 19/2/1
f 22/2/1 16/2/1 21/2/1
f 23/2/1 17/2/1 13/2/1
f 24/2/1 19/2/1 18/2/1
f 24/2/1 21/2/1 19/2/1
f 25/2/1 21/2/1 24/2/1
f 25/2/1 24/2/1 23/2/1
f 26/2/1 21/2/1 25/2/1
f 27/2/1 21/2/1 26/2/1
f 28/2/1 21/2/1 27/2/1
f 29/2/1 21/2/1 28/2/1
f 30/2/1 16/2/1 22/2/1
f 31/2/1 25/2/1 23/2/1
f 32/2/1 25/2/1 31/2/1
f 33/2/1 27/2/1 26/2/1
f 34/2/1 27/2/1 33/2/1
f 35/2/1 29/2/1 28/2/1
f 35/2/1 30/2/1 29/2/1
f 36/2/1 34/2/1 33/2/1
f 36/2/1 35/2/1 34/2/1
f 37/2/1 30/2/1 35/2/1
f 37/2/1 35/2/1 36/2/1
f 37/2/1 16/2/1 30/2/1
f 38/2/1 36/2/1 33/2/1
f 39/2/1 36/2/1 38/2/1
f 40/2/1 38/2/1 33/2/1
f 41/2/1 36/2/1 39/2/1
f 42/2/1 31/2/1 23/2/1
f 43/2/1 41/2/1 40/2/1
f 43/2/1 40/2/1 33/2/1
f 44/2/1 23/2/1 13/2/1
f 44/2/1 43/2/1 42/2/1
f 44/2/1 42/2/1 23/2/1
f 45/2/1 41/2/1 43/2/1
f 45/2/1 43/2/1 44/2/1
f 45/2/1 36/2/1 41/2/1
f 48/1/1 47/1/1 46/1/1
f 49/1/1 47/1/1 48/1/1
f 52/1/1 51/1/1 50/1/1
f 53/1/1 51/1/1 52/1/1
f 56/2/1 55/2/1 54/2/1
f 57/2/1 55/2/1 56/2/1
f 60/2/1 59/2/1 58/2/1
f 61/2/1 59/2/1 60/2/1
f 64/2/1 63/2/1 62/2/1
f 65/2/1 63/2/1 64/2/1
f 68/1/1 67/1/1 66/1/1
f 69/1/1 67/1/1 68/1/1
f 72/2/1 71/2/1 70/2/1
f 73/2/1 71/2/1 72/2/1
f 76/2/1 75/2/1 74/2/1
f 77/2/1 75/2/1 76/2/1
f 82/1/1 79/1/1 78/1/1
f 83/1/1 79/1/1 82/1/1
f 84/2/1 81/2/1 80/2/1
f 85/2/1 81/2/1 84/2/1
f 88/2/1 87/2/1 86/2/1
f 89/2/1 87/2/1 88/2/1
f 92/1/1 91/1/1 90/1/1
f 93/1/1 91/1/1 92/1/1
f 96/3/1 95/3/1 94/3/1
f 97/3/1 95/3/1 96/3/1
f 100/2/1 99/2/1 98/2/1
f 101/2/1 99/2/1 100/2/1
f 104/1/1 103/1/1 102/1/1
f 105/1/1 103/1/1 104/1/1
f 108/2/1 107/2/1 106/2/1
f 109/2/1 107/2/1 108/2/1
f 112/2/1 111/2/1 110/2/1
f 113/2/1 111/2/1 112/2/1
f 116/1/1 115/1/1 114/1/1
f 117/1/1 115/1/1 116/1/1
f 120/1/1 119/1/1 118/1/1
f 121/1/1 119/1/1 120/1/1
f 122/1/2 123/1/2 124/1/2
f 124/1/2 123/1/2 125/1/2
f 126/2/2 127/2/2 128/2/2
f 128/2/2 127/2/2 129/2/2
f 130/1/2 131/1/2 132/1/2
f 132/1/2 131/1/2 133/1/2
f 134/2/2 135/2/2 136/2/2
f 136/2/2 135/2/2 137/2/2
f 138/1/2 139/1/2 140/1/2
f 140/1/2 139/1/2 141/1/2
f 142/2/2 143/2/2 144/2/2
f 144/2/2 143/2/2 145/2/2
f 146/1/2 147/1/2 148/1/2
f 148/1/2 147/1/2 149/1/2
f 150/2/2 151/2/2 152/2/2
f 152/2/2 151/2/2 153/2/2
f 154/2/2 155/2/2 156/2/2
f 156/2/2 155/2/2 157/2/2
f 158/3/2 159/3/2 160/3/2
f 160/3/2 159/3/2 161/3/2
f 162/1/2 163/1/2 164/1/2
f 164/1/2 163/1/2 165/1/2
f 166/1/2 167/1/2 168/1/2
f 168/1/2 167/1/2 169/1/2
f 170/2/2 171/2/2 172/2/2
f 172/2/2 171/2/2 173/2/2
f 174/2/2 175/2/2 178/2/2
f 178/2/2 175/2/2 179/2/2
f 176/1/2 177/1/2 180/1/2
f 180/1/2 177/1/2 181/1/2
f 182/2/2 183/2/2 184/2/2
f 184/2/2 183/2/2 185/2/2
f 182/2/2 184/2/2 186/2/2
f 185/2/2 183/2/2 187/2/2
f 182/2/2 186/2/2 188/2/2
f 186/2/2 187/2/2 188/2/2
f 187/2/2 183/2/2 189/2/2
f 188/2/2 187/2/2 189/2/2
f 190/1/2 191/1/2 194/1/2
f 194/1/2 191/1/2 195/1/2
f 192/1/2 193/1/2 196/1/2
f 196/1/2 193/1/2 197/1/2
f 198/2/2 199/2/2 200/2/2
f 200/2/2 199/2/2 201/2/2
f 198/2/2 200/2/2 202/2/2
f 201/2/2 199/2/2 203/2/2
f 198/2/2 202/2/2 205/2/2
f 202/2/2 203/2/2 205/2/2
f 205/2/2 203/2/2 206/2/2
f 204/2/2 205/2/2 206/2/2
f 203/2/2 199/2/2 207/2/2
f 206/2/2 203/2/2 207/2/2
f 207/2/2 199/2/2 208/2/2
f 204/2/2 206/2/2 210/2/2
f 210/2/2 206/2/2 211/2/2
f 211/2/2 206/2/2 212/2/2
f 208/2/2 209/2/2 213/2/2
f 207/2/2 208/2/2 213/2/2
f 204/2/2 210/2/2 214/2/2
f 211/2/2 212/2/2 215/2/2
f 212/2/2 213/2/2 215/2/2
f 213/2/2 209/2/2 216/2/2
f 214/2/2 215/2/2 216/2/2
f 215/2/2 213/2/2 216/2/2
f 216/2/2 209/2/2 217/2/2
f 204/2/2 214/2/2 218/2/2
f 214/2/2 216/2/2 218/2/2
f 218/2/2 216/2/2 219/2/2
f 219/2/2 216/2/2 220/2/2
f 217/2/2 209/2/2 221/2/2
f 219/2/2 220/2/2 222/2/2
f 220/2/2 221/2/2 222/2/2
f 221/2/2 209/2/2 223/2/2
f 222/2/2 221/2/2 223/2/2
f 224/1/2 225/1/2 226/1/2
f 226/1/2 225/1/2 227/1/2
f 228/1/2 229/1/2 230/1/2
f 230/1/2 229/1/2 231/1/2
f 232/1/2 233/1/2 234/1/2
f 234/1/2 233/1/2 235/1/2
f 238/1/3 237/1/3 236/1/3
f 239/1/3 237/1/3 238/1/3
f 242/1/3 241/1/3 240/1/3
f 243/1/3 241/1/3 242/1/3
f 246/1/3 245/1/3 244/1/3
f 247/1/3 245/1/3 246/1/3
f 250/1/3 249/1/3 248/1/3
f 251/1/3 249/1/3 250/1/3
f 254/2/3 253/2/3 252/2/3
f 255/2/3 253/2/3 254/2/3
f 256/2/3 254/2/3 252/2/3
f 257/2/3 254/2/3 256/2/3
f 258/2/3 254/2/3 257/2/3
f 259/2/3 253/2/3 255/2/3
f 260/2/3 256/2/3 252/2/3
f 261/2/3 256/2/3 260/2/3
f 262/2/3 256/2/3 261/2/3
f 263/2/3 258/2/3 257/2/3
f 263/2/3 259/2/3 258/2/3
f 264/2/3 260/2/3 252/2/3
f 265/2/3 262/2/3 261/2/3
f 265/2/3 263/2/3 262/2/3
f 266/2/3 264/2/3 252/2/3
f 266/2/3 265/2/3 264/2/3
f 267/2/3 263/2/3 265/2/3
f 267/2/3 265/2/3 266/2/3
f 268/2/3 259/2/3 263/2/3
f 268/2/3 263/2/3 267/2/3
f 269/2/3 253/2/3 259/2/3
f 269/2/3 259/2/3 268/2/3
f 270/2/3 268/2/3 267/2/3
f 271/2/3 268/2/3 270/2/3
f 272/2/3 270/2/3 267/2/3
f 273/2/3 268/2/3 271/2/3
f 274/2/3 268/2/3 273/2/3
f 277/2/3 272/2/3 267/2/3
f 277/2/3 275/2/3 274/2/3
f 277/2/3 274/2/3 273/2/3
f 277/2/3 273/2/3 272/2/3
f 278/2/3 275/2/3 277/2/3
f 278/2/3 277/2/3 276/2/3
f 279/2/3 275/2/3 278/2/3
f 280/2/3 278/2/3 276/2/3
f 281/2/3 275/2/3 279/2/3
f 282/2/3 275/2/3 281/2/3
f 282/2/3 281/2/3 280/2/3
f 283/2/3 275/2/3 282/2/3
f 284/2/3 280/2/3 276/2/3
f 284/2/3 282/2/3 280/2/3
f 285/2/3 282/2/3 284/2/3
f 288/2/3 287/2/3 286/2/3
f 289/2/3 287/2/3 288/2/3
f 292/1/3 291/1/3 290/1/3
f 293/1/3 291/1/3 292/1/3
f 296/2/3 295/2/3 294/2/3
f 297/2/3 295/2/3 296/2/3
f 300/2/3 299/2/3 298/2/3
f 301/2/3 299/2/3 300/2/3
f 302/2/3 300/2/3 298/2/3
f 303/2/3 300/2/3 302/2/3
f 308/1/3 305/1/3 304/1/3
f 309/1/3 305/1/3 308/1/3
f 310/2/3 307/2/3 306/2/3
f 311/2/3 307/2/3 310/2/3
f 314/1/3 313/1/3 312/1/3
f 315/1/3 313/1/3 314/1/3
f 318/2/3 317/2/3 316/2/3
f 319/2/3 317/2/3 318/2/3
f 322/1/3 321/1/3 320/1/3
f 323/1/3 321/1/3 322/1/3
f 326/3/3 325/3/3 324/3/3
f 327/3/3 325/3/3 326/3/3
f 330/1/3 329/1/3 328/1/3
f 331/1/3 329/1/3 330/1/3
f 334/2/3 333/2/3 332/2/3
f 335/2/3 333/2/3 334/2/3
f 338/2/3 337/2/3 336/2/3
f 339/2/3 337/2/3 338/2/3
f 344/1/3 341/1/3 340/1/3
f 345/1/3 341/1/3 344/1/3
f 346/2/3 343/2/3 342/2/3
f 347/2/3 343/2/3 346/2/3
f 350/1/3 349/1/3 348/1/3
f 351/1/3 349/1/3 350/1/3
f 354/2/3 353/2/3 352/2/3
f 355/2/3 353/2/3 354/2/3
f 356/2/4 357/2/4 358/2/4
f 358/2/4 357/2/4 359/2/4
f 360/2/4 361/2/4 362/2/4
f 362/2/4 361/2/4 363/2/4
f 364/1/4 365/1/4 366/1/4
f 366/1/4 365/1/4 367/1/4
f 368/2/4 369/2/4 370/2/4
f 370/2/4 369/2/4 371/2/4
f 372/1/4 373/1/4 374/1/4
f 374/1/4 373/1/4 375/1/4
f 376/1/4 377/1/4 378/1/4
f 378/1/4 377/1/4 379/1/4
f 380/2/4 381/2/4 382/2/4
f 382/2/4 381/2/4 383/2/4
f 384/1/4 385/1/4 386/1/4
f 386/1/4 385/1/4 387/1/4
f 388/3/4 389/3/4 390/3/4
f 390/3/4 389/3/4 391/3/4
f 392/1/4 393/1/4 394/1/4
f 394/1/4 393/1/4 395/1/4
f 396/2/4 397/2/4 398/2/4
f 398/2/4 397/2/4 399/2/4
f 400/1/4 401/1/4 402/1/4
f 402/1/4 401/1/4 403/1/4
f 404/2/4 405/2/4 406/2/4
f 406/2/4 405/2/4 407/2/4
f 408/2/4 409/2/4 410/2/4
f 410/2/4 409/2/4 411/2/4
f 412/2/4 413/2/4 414/2/4
f 414/2/4 413/2/4 415/2/4
f 416/2/4 417/2/4 418/2/4
f 418/2/4 417/2/4 419/2/4
f 420/1/4 421/1/4 422/1/4
f 422/1/4 421/1/4 423/1/4
f 424/2/4 425/2/4 426/2/4
f 426/2/4 425/2/4 427/2/4
f 424/2/4 426/2/4 428/2/4
f 427/2/4 425/2/4 429/2/4
f 424/2/4 428/2/4 430/2/4
f 428/2/4 429/2/4 430/2/4
f 430/2/4 429/2/4 431/2/4
f 424/2/4 430/2/4 432/2/4
f 431/2/4 429/2/4 433/2/4
f 429/2/4 425/2/4 434/2/4
f 433/2/4 429/2/4 434/2/4
f 434/2/4 425/2/4 435/2/4
f 432/2/4 433/2/4 436/2/4
f 433/2/4 434/2/4 436/2/4
f 435/2/4 425/2/4 437/2/4
f 437/2/4 425/2/4 438/2/4
f 436/2/4 437/2/4 438/2/4
f 432/2/4 436/2/4 440/2/4
f 438/2/4 439/2/4 440/2/4
f 436/2/4 438/2/4 440/2/4
f 440/2/4 439/2/4 441/2/4
f 424/2/4 432/2/4 442/2/4
f 432/2/4 440/2/4 442/2/4
f 442/2/4 440/2/4 443/2/4
f 424/2/4 442/2/4 444/2/4
f 443/2/4 440/2/4 445/2/4
f 445/2/4 440/2/4 446/2/4
f 441/2/4 439/2/4 447/2/4
f 445/2/4 446/2/4 448/2/4
f 446/2/4 447/2/4 448/2/4
f 424/2/4 444/2/4 448/2/4
f 444/2/4 445/2/4 448/2/4
f 448/2/4 447/2/4 449/2/4
f 449/2/4 447/2/4 450/2/4
f 447/2/4 439/2/4 451/2/4
f 450/2/4 447/2/4 451/2/4
f 449/2/4 450/2/4 452/2/4
f 451/2/4 439/2/4 453/2/4
f 449/2/4 452/2/4 454/2/4
f 452/2/4 453/2/4 454/2/4
f 453/2/4 439/2/4 455/2/4
f 454/2/4 453/2/4 455/2/4
f 456/1/4 457/1/4 458/1/4
f 458/1/4 457/1/4 459/1/4
f 460/1/4 461/1/4 462/1/4
f 462/1/4 461/1/4 463/1/4
f 464/1/4 465/1/4 466/1/4
f 466/1/4 465/1/4 467/1/4
f 468/1/4 469/1/4 470/1/4
f 470/1/4 469/1/4 471/1/4
f 474/3/5 473/3/5 472/3/5
f 475/3/5 473/3/5 474/3/5
f 478/2/5 477/2/5 476/2/5
f 480/2/5 478/2/5 476/2/5
f 480/2/5 479/2/5 478/2/5
f 481/2/5 479/2/5 480/2/5
f 482/2/5 479/2/5 481/2/5
f 483/2/5 479/2/5 482/2/5
f 484/2/5 482/2/5 481/2/5
f 485/2/5 479/2/5 483/2/5
f 487/2/5 484/2/5 481/2/5
f 487/2/5 485/2/5 484/2/5
f 488/2/5 479/2/5 485/2/5
f 488/2/5 487/2/5 486/2/5
f 488/2/5 485/2/5 487/2/5
f 489/2/5 479/2/5 488/2/5
f 490/2/5 488/2/5 486/2/5
f 491/2/5 488/2/5 490/2/5
f 494/1/5 493/1/5 492/1/5
f 495/1/5 493/1/5 494/1/5
f 498/1/5 497/1/5 496/1/5
f 499/1/5 497/1/5 498/1/5
f 502/2/5 501/2/5 500/2/5
f 503/2/5 501/2/5 502/2/5
f 506/1/5 505/1/5 504/1/5
f 507/1/5 505/1/5 506/1/5
f 510/2/5 509/2/5 508/2/5
f 511/2/5 509/2/5 510/2/5
f 514/2/5 513/2/5 512/2/5
f 515/2/5 513/2/5 514/2/5
f 520/2/5 517/2/5 516/2/5
f 521/2/5 517/2/5 520/2/5
f 522/1/5 519/1/5 518/1/5
f 523/1/5 519/1/5 522/1/5
f 526/2/5 525/2/5 524/2/5
f 527/2/5 525/2/5 526/2/5
f 530/2/5 529/2/5 528/2/5
f 531/2/5 529/2/5 530/2/5
f 534/1/5 533/1/5 532/1/5
f 535/1/5 533/1/5 534/1/5
f 538/1/5 537/1/5 536/1/5
f 539/1/5 537/1/5 538/1/5
f 542/2/5 541/2/5 540/2/5
f 543/2/5 541/2/5 542/2/5
f 546/1/5 545/1/5 544/1/5
f 547/1/5 545/1/5 546/1/5
f 550/1/5 549/1/5 548/1/5
f 551/1/5 549/1/5 550/1/5
f 554/1/5 553/1/5 552/1/5
f 555/1/5 553/1/5 554/1/5
f 558/1/5 557/1/5 556/1/5
f 559/1/5 557/1/5 558/1/5
f 562/2/5 561/2/5 560/2/5
f 563/2/5 561/2/5 562/2/5
f 566/1/5 565/1/5 564/1/5
f 567/1/5 565/1/5 566/1/5
f 570/2/5 569/2/5 568/2/5
f 571/2/5 569/2/5 570/2/5
f 574/1/5 573/1/5 572/1/5
f 575/1/5 573/1/5 574/1/5
f 578/1/5 577/1/5 576/1/5
f 579/1/5 577/1/5 578/1/5
f 582/1/5 581/1/5 580/1/5
f 583/1/5 581/1/5 582/1/5
f 586/1/5 585/1/5 584/1/5
f 587/1/5 585/1/5 586/1/5
f 590/2/5 589/2/5 588/2/5
f 591/2/5 589/2/5 590/2/5
f 594/2/5 593/2/5 592/2/5
f 595/2/5 593/2/5 594/2/5
f 596/2/6 597/2/6 598/2/6
f 598/2/6 597/2/6 599/2/6
f 600/1/6 601/1/6 602/1/6
f 602/1/6 601/1/6 603/1/6
f 604/2/6 605/2/6 606/2/6
f 606/2/6 605/2/6 607/2/6
f 608/1/6 609/1/6 610/1/6
f 610/1/6 609/1/6 611/1/6
f 612/2/6 613/2/6 614/2/6
f 614/2/6 613/2/6 615/2/6
f 616/2/6 617/2/6 618/2/6
f 618/2/6 617/2/6 619/2/6
f 620/1/6 621/1/6 622/1/6
f 622/1/6 621/1/6 623/1/6
f 624/1/6 625/1/6 626/1/6
f 626/1/6 625/1/6 627/1/6
f 628/2/6 629/2/6 630/2/6
f 630/2/6 629/2/6 631/2/6
f 632/2/6 633/2/6 634/2/6
f 634/2/6 633/2/6 635/2/6
f 636/2/6 637/2/6 639/2/6
f 638/1/6 639/1/6 640/1/6
f 639/2/6 637/2/6 641/2/6
f 640/1/6 639/1/6 641/1/6
f 641/2/6 637/2/6 642/2/6
f 643/1/6 644/1/6 645/1/6
f 645/1/6 644/1/6 646/1/6
f 647/1/6 648/1/6 649/1/6
f 649/1/6 648/1/6 650/1/6
f 651/1/6 652/1/6 653/1/6
f 653/1/6 652/1/6 654/1/6
f 655/2/6 656/2/6 657/2/6
f 657/2/6 656/2/6 658/2/6
f 659/1/6 660/1/6 663/1/6
f 663/1/6 660/1/6 664/1/6
f 661/1/6 662/1/6 665/1/6
f 665/1/6 662/1/6 666/1/6
f 667/2/6 668/2/6 669/2/6
f 669/2/6 668/2/6 670/2/6
f 671/1/6 672/1/6 673/1/6
f 673/1/6 672/1/6 674/1/6
f 675/2/6 676/2/6 677/2/6
f 677/2/6 676/2/6 678/2/6
f 679/1/6 680/1/6 681/1/6
f 681/1/6 680/1/6 682/1/6
f 683/1/6 684/1/6 685/1/6
f 685/1/6 684/1/6 686/1/6
f 687/1/6 688/1/6 689/1/6
f 689/1/6 688/1/6 690/1/6
f 691/1/6 692/1/6 693/1/6
f 693/1/6 692/1/6 694/1/6
f 695/2/6 696/2/6 699/2/6
f 697/2/6 698/2/6 700/2/6
f 695/2/6 699/2/6 701/2/6
f 699/2/6 700/2/6 701/2/6
f 701/2/6 700/2/6 702/2/6
f 700/2/6 698/2/6 703/2/6
f 702/2/6 700/2/6 703/2/6
f 703/2/6 704/2/6 705/2/6
f 702/2/6 703/2/6 705/2/6
f 705/2/6 704/2/6 706/2/6
